<svg width="117" height="57" viewBox="0 0 117 57" fill="none" xmlns="http://www.w3.org/2000/svg">
<path d="M69.2461 25.9628V16.7871H73.0019C73.9855 16.7871 74.8483 16.9815 75.5918 17.3702C76.3337 17.7589 76.9116 18.2991 77.3256 18.9892C77.738 19.6793 77.945 20.4749 77.945 21.3758C77.945 22.2767 77.738 23.0706 77.3256 23.7607C76.9133 24.4508 76.3354 24.9911 75.5918 25.3798C74.8499 25.7685 73.9855 25.9628 73.0019 25.9628H69.2461ZM70.2215 25.1245H72.9489C73.7653 25.1245 74.4757 24.9647 75.0768 24.6468C75.6779 24.3273 76.1466 23.8859 76.4811 23.3226C76.8156 22.7593 76.9812 22.1104 76.9812 21.3758C76.9812 20.633 76.8139 19.9824 76.4811 19.4224C76.1466 18.8624 75.6796 18.4243 75.0768 18.1048C74.474 17.7852 73.7653 17.6271 72.9489 17.6271H70.2215V25.1245Z" fill="#101820"/>
<path d="M83.8502 26.0419C82.6728 26.0419 81.7454 25.7059 81.0698 25.0323C80.3925 24.3586 80.0547 23.3638 80.0547 22.0429V16.7871H81.0301V22.005C81.0301 23.0887 81.2751 23.8876 81.7686 24.4031C82.2605 24.9186 82.9543 25.1772 83.8502 25.1772C84.7544 25.1772 85.4532 24.9203 85.945 24.4031C86.4368 23.8876 86.6836 23.0871 86.6836 22.005V16.7871H87.6325V22.0429C87.6325 23.3621 87.2963 24.3586 86.624 25.0323C85.9516 25.7043 85.026 26.0419 83.8502 26.0419Z" fill="#101820"/>
<path d="M90.5703 25.9628V16.7871H94.5513C95.5797 16.7871 96.3762 16.993 96.9425 17.4031C97.5089 17.8132 97.7921 18.3946 97.7921 19.1457C97.7921 19.6431 97.6761 20.0631 97.4426 20.404C97.2092 20.745 96.8929 21.0019 96.4938 21.1782C96.093 21.3527 95.6575 21.44 95.1822 21.44L95.4058 21.1254C95.9937 21.1254 96.502 21.2144 96.9276 21.3939C97.3532 21.5734 97.6861 21.8403 97.9229 22.1927C98.1597 22.5452 98.2789 22.985 98.2789 23.5104C98.2789 24.2878 97.9908 24.8906 97.4161 25.3188C96.8399 25.7471 95.9738 25.9612 94.8129 25.9612H90.5703V25.9628ZM91.5457 25.1624H94.8013C95.6095 25.1624 96.2288 25.024 96.6594 24.749C97.0899 24.4739 97.3052 24.0341 97.3052 23.4313C97.3052 22.8367 97.0899 22.4019 96.6594 22.1269C96.2288 21.8518 95.6095 21.7134 94.8013 21.7134H91.4414V20.9146H94.4851C95.2236 20.9146 95.7966 20.7746 96.2056 20.4946C96.6146 20.2146 96.8183 19.7996 96.8183 19.2495C96.8183 18.6911 96.6146 18.2727 96.2056 17.9977C95.7966 17.7226 95.2236 17.5843 94.4851 17.5843H91.5457V25.1624Z" fill="#101820"/>
<path d="M99.0322 25.9628L103.25 16.7871H104.212L108.43 25.9628H107.402L103.527 17.3504H103.922L100.047 25.9628H99.0322ZM100.693 23.512L100.983 22.7247H106.347L106.637 23.512H100.693Z" fill="#101820"/>
<path d="M109.958 25.9628V16.7871H110.934V25.9628H109.958Z" fill="#101820"/>
<path d="M69.2544 39.3763V30.2006H70.2298V39.3763H69.2544Z" fill="#101820"/>
<path d="M73.2336 39.3763V30.2006H74.0368L80.4024 38.1707H79.9801V30.2006H80.9423V39.3763H80.1391L73.7867 31.4062H74.209V39.3763H73.2336Z" fill="#101820"/>
<path d="M86.4667 39.3763L82.3813 30.2006H83.4362L87.2582 38.8394H86.6786L90.5271 30.2006H91.5157L87.4304 39.3763H86.4667Z" fill="#101820"/>
<path d="M93.8208 38.5379H99.37V39.3763H92.8455V30.2006H99.1713V31.0389H93.8208V38.5379ZM93.7149 34.3034H98.5917V35.1285H93.7149V34.3034Z" fill="#101820"/>
<path d="M104.206 39.4554C103.52 39.4554 102.863 39.3434 102.235 39.1211C101.607 38.8987 101.12 38.6121 100.779 38.263L101.162 37.5152C101.486 37.8298 101.924 38.095 102.473 38.3091C103.021 38.5232 103.599 38.6303 104.207 38.6303C104.787 38.6303 105.259 38.5578 105.625 38.4145C105.989 38.2696 106.257 38.0752 106.428 37.8314C106.598 37.5877 106.685 37.3159 106.685 37.0194C106.685 36.662 106.582 36.3722 106.375 36.1547C106.168 35.9357 105.898 35.7644 105.565 35.6376C105.231 35.5107 104.861 35.4004 104.457 35.3032C104.053 35.2077 103.649 35.1039 103.245 34.9952C102.841 34.8865 102.47 34.7399 102.131 34.5554C101.793 34.3726 101.52 34.1289 101.314 33.8275C101.107 33.526 101.005 33.1307 101.005 32.6416C101.005 32.187 101.125 31.7703 101.367 31.3898C101.609 31.0093 101.98 30.7046 102.482 30.4724C102.982 30.2402 103.624 30.1249 104.406 30.1249C104.924 30.1249 105.438 30.1973 105.948 30.3406C106.458 30.4856 106.896 30.6832 107.266 30.9369L106.936 31.711C106.54 31.4491 106.122 31.2564 105.678 31.1345C105.234 31.0126 104.805 30.9517 104.393 30.9517C103.84 30.9517 103.383 31.0258 103.022 31.174C102.661 31.3223 102.396 31.5216 102.225 31.7703C102.054 32.019 101.968 32.3006 101.968 32.6152C101.968 32.9743 102.071 33.2625 102.278 33.4799C102.485 33.699 102.757 33.8686 103.094 33.9905C103.432 34.1124 103.803 34.2227 104.209 34.3183C104.613 34.4138 105.015 34.5192 105.414 34.6329C105.813 34.7465 106.183 34.8931 106.522 35.0726C106.86 35.2522 107.133 35.4893 107.339 35.7874C107.546 36.0839 107.648 36.4743 107.648 36.9536C107.648 37.3999 107.526 37.8117 107.279 38.1921C107.032 38.5726 106.658 38.879 106.153 39.1096C105.645 39.3401 104.997 39.4554 104.206 39.4554Z" fill="#101820"/>
<path d="M111.429 39.3763V31.0389H108.187V30.2006H115.647V31.0389H112.404V39.3763H111.429Z" fill="#101820"/>
<path d="M70.2249 52.0637H75.7741V52.9021H69.2495V43.7263H75.5754V44.5647H70.2249V52.0637ZM70.1189 47.8308H74.9958V48.6559H70.1189V47.8308Z" fill="#101820"/>
<path d="M80.6096 52.9811C79.924 52.9811 79.2666 52.8691 78.639 52.6468C78.0113 52.4244 77.5245 52.1378 77.1833 51.7887L77.5659 51.0409C77.8905 51.3555 78.3276 51.6207 78.8774 51.8331C79.4256 52.0472 80.0035 52.1543 80.6112 52.1543C81.1908 52.1543 81.6628 52.0818 82.0288 51.9385C82.3931 51.7936 82.6613 51.5993 82.8319 51.3555C83.0025 51.1117 83.0886 50.84 83.0886 50.5435C83.0886 50.1844 82.9859 49.8962 82.7789 49.6788C82.5719 49.4597 82.302 49.2884 81.9691 49.1616C81.6346 49.0348 81.2654 48.9228 80.8613 48.8273C80.4572 48.7317 80.0532 48.628 79.6491 48.5193C79.2451 48.4106 78.8741 48.264 78.5346 48.0795C78.1968 47.8967 77.9236 47.6529 77.7182 47.3515C77.5112 47.0501 77.4086 46.6548 77.4086 46.1656C77.4086 45.711 77.5294 45.2943 77.7712 44.9139C78.013 44.5334 78.3839 44.2287 78.8857 43.9965C79.3858 43.7642 80.0283 43.6489 80.81 43.6489C81.3283 43.6489 81.8416 43.7214 82.3517 43.8647C82.8617 44.0096 83.3006 44.2073 83.6698 44.4609L83.3403 45.235C82.9445 44.9732 82.5256 44.7805 82.0818 44.6586C81.6379 44.5367 81.209 44.4757 80.7967 44.4757C80.2436 44.4757 79.7866 44.5499 79.4256 44.6981C79.0645 44.8463 78.7996 45.0456 78.629 45.2943C78.4585 45.543 78.3723 45.8247 78.3723 46.1393C78.3723 46.4983 78.475 46.7866 78.682 47.004C78.889 47.223 79.1606 47.3927 79.4984 47.5146C79.8362 47.6364 80.2072 47.7468 80.6129 47.8423C81.017 47.9379 81.4194 48.0433 81.8184 48.1569C82.2175 48.2706 82.5868 48.4171 82.9263 48.5967C83.2641 48.7762 83.5374 49.0134 83.7427 49.3115C83.9497 49.608 84.0524 49.9983 84.0524 50.4776C84.0524 50.924 83.9298 51.3357 83.6831 51.7162C83.4363 52.0967 83.0621 52.403 82.557 52.6336C82.0486 52.8658 81.4011 52.9811 80.6096 52.9811Z" fill="#101820"/>
<path d="M87.8313 52.9038V44.5664H84.5889V43.728H92.0491V44.5664H88.8067V52.9038H87.8313Z" fill="#101820"/>
<path d="M91.6665 52.9038L95.8843 43.728H96.8464L101.064 52.9038H100.036L96.1608 44.2913H96.5566L92.6816 52.9038H91.6665ZM93.3275 50.4513L93.6172 49.664H98.981L99.2708 50.4513H93.3275Z" fill="#101820"/>
<path d="M103.924 52.9038V44.5664H100.682V43.728H108.142V44.5664H104.899V52.9038H103.924Z" fill="#101820"/>
<path d="M110.672 52.0637H116.222V52.9021H109.697V43.7263H116.023V44.5647H110.672V52.0637ZM110.566 47.8308H115.443V48.6559H110.566V47.8308Z" fill="#101820"/>
<path d="M54.2811 12.4175H53.4531V56.7347H54.2811V12.4175Z" fill="#101820"/>
<path d="M32.9418 15.3176C27.1551 10.8723 19.4708 8.37549 11.241 8.25215V0L10.2404 0.995058V40.5307L0.221436 34.7387V56.985H1.22202V36.4855L10.2339 41.6958V56.9983H11.2345V41.3224H11.2394V22.9947L20.2644 18.0727C20.266 23.6414 20.2792 54.7032 20.2792 56.4766V57L20.7951 56.9833C27.5823 56.7717 33.1439 54.2665 36.8784 49.7412C40.3747 45.506 42.2214 39.6106 42.2214 32.6936C42.2231 26.0865 38.9272 19.9162 32.9418 15.3176ZM21.2814 55.9483C21.2798 51.008 21.2666 17.5777 21.265 17.2227V16.3743L11.241 21.8413V9.26721C19.2539 9.39055 26.7247 11.814 32.3388 16.1276C38.0679 20.5279 41.2225 26.4115 41.2225 32.6952C41.2225 46.6777 33.7797 55.3332 21.2814 55.9483Z" fill="#101820"/>
</svg>
