<svg width="55" height="53" viewBox="0 0 55 53" fill="none" xmlns="http://www.w3.org/2000/svg">
<path d="M42.8838 23.929L43.0396 24.237C43.0396 24.237 42.919 24.2168 42.6947 24.16C42.639 24.1453 42.5778 24.127 42.5092 24.1087C42.4406 24.0903 42.3757 24.0555 42.2997 24.0225C42.1263 23.9532 41.9599 23.8678 41.8027 23.7676C41.7118 23.7126 41.6172 23.6521 41.5263 23.5843C41.4355 23.5164 41.3409 23.4376 41.2519 23.3569C41.0531 23.1805 40.8724 22.9852 40.7122 22.7739C40.3457 22.2781 40.0926 21.7094 39.9705 21.1072C39.857 20.5007 39.8621 19.8783 39.9853 19.2737C40.015 19.138 40.0502 19.0024 40.0836 18.8777C40.117 18.753 40.1726 18.6265 40.2171 18.511C40.3025 18.2971 40.41 18.0925 40.5379 17.9004C40.588 17.8138 40.6464 17.7321 40.7122 17.6566C40.7753 17.5832 40.8346 17.5172 40.8977 17.4567C40.9958 17.3483 41.1103 17.2555 41.2371 17.1817C41.4503 17.0533 41.6079 17.0277 41.7229 17.101C41.7824 17.161 41.8272 17.2337 41.8539 17.3135C41.8806 17.3932 41.8884 17.478 41.8768 17.5612C41.8768 17.6694 41.862 17.7922 41.8564 17.9279C41.8564 17.9958 41.8435 18.0673 41.8342 18.1424C41.8249 18.2176 41.8138 18.2928 41.8101 18.3753C41.8101 18.5403 41.7674 18.709 41.7674 18.8942L41.7489 19.1747C41.7489 19.2719 41.7489 19.3709 41.7489 19.4699C41.748 19.9004 41.7871 20.33 41.8657 20.7534C41.9523 21.1995 42.0468 21.6273 42.1494 22.0368C42.2125 22.233 42.257 22.4365 42.3349 22.6125C42.3683 22.7079 42.3924 22.7959 42.4258 22.8875L42.5259 23.1387C42.5834 23.3056 42.6594 23.4449 42.7113 23.5824C42.7429 23.6485 42.7688 23.7145 42.7967 23.7658L42.8838 23.929ZM49.3077 18.1223C50.0272 18.0911 50.5817 18.1773 50.7152 17.9389C50.7801 17.8252 50.7282 17.6529 50.5483 17.4365C50.2765 17.1545 49.9428 16.9381 49.5728 16.804C49.0063 16.5915 48.3958 16.5191 47.7944 16.5931C47.0659 16.6771 46.3674 16.9283 45.7545 17.3265C45.1672 17.705 44.6704 18.2056 44.2988 18.7933C44.0055 19.257 43.7924 19.7657 43.6682 20.2986C43.5797 20.652 43.5343 21.0145 43.5329 21.3786C43.5329 21.5014 43.5329 21.6023 43.5459 21.6701L43.5459 21.7709L43.8055 21.4794C43.9687 21.2961 44.2079 21.0394 44.5009 20.746C45.203 20.0613 45.972 19.4472 46.7967 18.9125C47.5435 18.4242 48.4128 18.1506 49.3077 18.1223ZM45.5283 24.4185C45.7846 24.2325 46.0661 24.0831 46.3646 23.9748C46.6799 23.8538 47.0322 23.7511 47.4309 23.6338C48.2302 23.4064 49.0629 23.2854 49.6841 23.1479C50.3054 23.0104 50.7412 22.8582 50.7968 22.5979C50.8524 22.3375 50.4704 22.0221 49.7713 21.8058C48.8316 21.5399 47.8348 21.543 46.8969 21.815C46.3344 21.9743 45.8233 22.275 45.4133 22.6877C45.2286 22.8765 45.0707 23.0893 44.9441 23.3203C44.8368 23.5182 44.7576 23.7298 44.7086 23.9492C44.6396 24.2504 44.6339 24.5624 44.6919 24.8659C44.7128 24.9726 44.7426 25.0775 44.7809 25.1794L44.9831 24.9356C45.1463 24.7451 45.329 24.5719 45.5283 24.4185ZM48.1245 25.4746C47.9507 25.688 47.8311 25.9395 47.7759 26.208L47.7462 26.3914C47.7379 26.4478 47.7342 26.5049 47.7351 26.5619C47.7265 26.6607 47.7265 26.7601 47.7351 26.8589C47.7658 27.1345 47.828 27.4058 47.9205 27.6675L48.0225 27.9444L48.0225 27.6528C48.0272 27.3929 48.0595 27.1342 48.119 26.8809C48.1713 26.5707 48.3444 26.293 48.6011 26.1072C48.7373 26.0256 48.9001 25.9993 49.0555 26.0338C49.2047 26.0684 49.3364 26.155 49.4263 26.2777C49.4732 26.3315 49.5091 26.3938 49.532 26.461C49.5457 26.4919 49.5568 26.5238 49.5654 26.5564L49.597 26.6737C49.646 26.8734 49.6654 27.0791 49.6544 27.2843C49.6152 27.7622 49.4949 28.2302 49.2984 28.6686C49.189 28.9124 49.087 29.1618 48.9757 29.3617C48.8644 29.5615 48.7254 29.7797 48.5863 29.9795C48.3063 30.3847 47.9854 30.7808 47.6794 31.1732C47.0619 31.9597 46.5111 32.7628 46.2107 33.5695C45.937 34.2363 45.8598 34.9661 45.9882 35.6744C46.0633 36.0622 46.2249 36.4286 46.4611 36.747C46.5376 36.8451 46.6233 36.936 46.717 37.0184C46.717 37.0184 46.7652 36.8992 46.8282 36.6755C46.9271 36.3632 47.0447 36.0571 47.1806 35.7588C47.3959 35.3103 47.6642 34.8888 47.9799 34.5028C48.3619 34.0151 48.9071 33.4467 49.5617 32.6143C49.9306 32.1478 50.2594 31.6517 50.5446 31.131C50.7076 30.8302 50.8501 30.5191 50.9711 30.1996C51.0771 29.8776 51.165 29.5502 51.2344 29.2186C51.3936 28.5229 51.4082 27.8024 51.2771 27.1009C51.2012 26.7353 51.0646 26.3847 50.8728 26.0632L50.7986 25.944C50.7727 25.9037 50.7356 25.8542 50.7041 25.8138C50.6397 25.7281 50.569 25.6472 50.4927 25.5718C50.4205 25.4966 50.3417 25.4278 50.2571 25.3664C50.1776 25.3036 50.0919 25.249 50.0012 25.2033C49.6802 25.0214 49.3059 24.9535 48.9405 25.0107C48.6206 25.0654 48.3304 25.2296 48.1208 25.4746L48.1245 25.4746ZM49.0184 34.0499C48.7499 34.2066 48.5165 34.4156 48.3322 34.6641C48.0809 34.9993 47.9457 35.4057 47.9465 35.8229C47.9467 36.0536 47.998 36.2814 48.0967 36.4903C48.1282 36.5657 48.1687 36.6371 48.2172 36.703C48.2172 36.703 48.3044 36.6755 48.4472 36.6205L49.0035 36.3785C49.2247 36.2796 49.4543 36.2005 49.6897 36.1419C49.8971 36.106 50.1064 36.0809 50.3165 36.0668C50.4715 36.0486 50.6277 36.0413 50.7838 36.0448C51.0005 36.0541 51.2162 36.0792 51.4292 36.1199C51.9288 36.2246 52.413 36.3916 52.8701 36.6168C53.2635 36.8104 53.6363 37.0426 53.9828 37.3099C54.1181 37.4181 54.2294 37.5079 54.298 37.5739L54.4111 37.6766L54.387 37.5262C54.3658 37.3859 54.3361 37.2469 54.298 37.11C54.161 36.6325 53.9542 36.1772 53.6842 35.7588C53.3173 35.1848 52.8335 34.6928 52.2637 34.3139C51.9468 34.1054 51.6007 33.9441 51.2363 33.8354C50.8578 33.7241 50.4611 33.6861 50.068 33.7236C49.6982 33.755 49.3398 33.8664 49.0184 34.0499ZM42.231 10.1062C42.0785 9.60764 42.0785 9.07561 42.231 8.57706C42.3334 8.24126 42.4893 7.92375 42.6928 7.63647C42.9247 7.3081 43.2112 7.02105 43.5403 6.78756C43.8636 6.5496 44.2425 6.39633 44.6418 6.34201C44.8241 6.32164 45.0086 6.33281 45.1871 6.37502C45.2353 6.37502 45.2612 6.40069 45.3002 6.40802C45.3391 6.41535 45.3354 6.41719 45.3577 6.42636L45.4152 6.45936C45.4559 6.48136 45.4967 6.49786 45.5413 6.52536C45.5858 6.55287 45.6229 6.58037 45.6674 6.60604C45.8217 6.7162 45.9585 6.84844 46.0735 6.99841C46.1862 7.16102 46.2761 7.33805 46.3405 7.52462C46.4803 7.9617 46.551 8.4175 46.5501 8.87592C46.5456 9.77773 46.4793 10.6782 46.3517 11.5712C46.2515 12.3687 46.1662 13.038 46.1458 13.4927C46.1316 13.7321 46.1316 13.972 46.1458 14.2114C46.1458 14.2114 46.2441 13.9767 46.4462 13.5679C46.6484 13.159 46.9506 12.5759 47.2882 11.8242C47.7048 10.9207 47.9997 9.96712 48.1653 8.98776C48.2723 8.33743 48.2534 7.67294 48.1097 7.02958C48.0163 6.64827 47.8603 6.28468 47.6479 5.95331C47.415 5.60387 47.1189 5.29992 46.7745 5.05673C46.4226 4.80453 46.0226 4.62551 45.5987 4.53051C45.1952 4.44346 44.7786 4.43288 44.3711 4.49934C43.6529 4.62177 42.9832 4.93916 42.4369 5.4161C41.5452 6.16335 40.9891 7.22932 40.8903 8.38087C40.8585 8.82227 40.9218 9.26531 41.0757 9.68082C41.1914 9.98935 41.3722 10.27 41.6061 10.5041C41.6865 10.5883 41.7767 10.6628 41.875 10.7259C41.9439 10.7767 42.0202 10.8169 42.1012 10.8451C42.2366 10.8928 42.3238 10.8909 42.3701 10.8451C42.4684 10.7406 42.3534 10.4912 42.231 10.1062ZM48.6771 5.32992C48.7625 5.46743 48.8199 5.54811 48.8199 5.54811C48.8761 5.48101 48.9282 5.4106 48.9757 5.33726C49.1079 5.14427 49.2133 4.9346 49.2891 4.71386C49.4007 4.37965 49.446 4.02729 49.4226 3.6761C49.3955 3.22578 49.2456 2.79113 48.9887 2.41832C48.729 2.0341 48.384 1.71363 47.9799 1.4814C47.8853 1.43006 47.7944 1.38605 47.7036 1.34572C47.6124 1.30745 47.5189 1.27499 47.4235 1.24854C47.2609 1.1979 47.0929 1.16591 46.9228 1.1532C46.6704 1.12351 46.4145 1.16019 46.181 1.25954C46.1098 1.28542 46.0461 1.32849 45.9959 1.38485C45.9457 1.4412 45.9106 1.50905 45.8936 1.58224C45.8547 1.84993 46.1198 2.11396 46.4351 2.40915C46.5111 2.49166 46.5964 2.5595 46.6762 2.64567L46.8023 2.76668C46.8394 2.81069 46.882 2.85286 46.9228 2.89503C47.0902 3.07956 47.2456 3.2743 47.3883 3.47808C47.5552 3.70727 47.711 3.92912 47.8593 4.13448C48.0077 4.33983 48.1783 4.58552 48.3229 4.7927C48.4676 4.99989 48.5955 5.19424 48.6771 5.32992ZM43.3382 17.431C43.4135 17.369 43.4853 17.3029 43.5533 17.233C43.6359 17.1522 43.7099 17.0631 43.774 16.9672C43.8632 16.8414 43.9402 16.7076 44.0039 16.5675C44.0884 16.3923 44.1506 16.2076 44.1894 16.0174C44.2079 15.9147 44.2302 15.8066 44.2394 15.6947C44.2487 15.5829 44.2394 15.4692 44.2394 15.3482C44.2096 14.8206 44.0296 14.3122 43.7202 13.8814C43.4014 13.4493 42.9798 13.1016 42.4925 12.8693C42.3831 12.8198 42.2718 12.7739 42.1643 12.7318C42.0567 12.6896 41.9455 12.6749 41.8379 12.6493C41.645 12.6066 41.4477 12.5869 41.25 12.5906C40.9646 12.5883 40.6836 12.6611 40.4359 12.8014C40.2505 12.9115 40.1707 13.038 40.1763 13.1681C40.1894 13.2426 40.2179 13.3136 40.2601 13.3767C40.3022 13.4398 40.357 13.4936 40.4211 13.5348C40.562 13.6412 40.7475 13.7714 40.9533 13.9016C41.0516 13.9767 41.1647 14.0281 41.263 14.1179C41.3168 14.1582 41.3687 14.1949 41.4244 14.2334C41.48 14.2719 41.5245 14.3233 41.5783 14.3673C41.7959 14.5553 41.9929 14.7655 42.1661 14.9943C42.3405 15.24 42.5074 15.4784 42.6631 15.7277C42.7002 15.7913 42.7392 15.8524 42.78 15.9111C42.8152 15.9771 42.843 16.0394 42.8782 16.1054C42.9467 16.2306 43.0086 16.3591 43.0637 16.4905C43.1506 16.7043 43.2231 16.9236 43.2807 17.1469L43.3382 17.431ZM44.9719 2.52833C44.9894 2.29212 44.9572 2.05489 44.8774 1.8316C44.7743 1.54767 44.5986 1.29499 44.3674 1.09819C44.2246 0.973364 44.0678 0.865094 43.9001 0.775497C43.8148 0.727826 43.7257 0.680155 43.6349 0.637985C43.544 0.595814 43.4402 0.560979 43.3419 0.526142C42.9552 0.385824 42.552 0.294641 42.142 0.254783C41.9455 0.243782 41.7656 0.238281 41.6024 0.238281C41.4595 0.239046 41.3169 0.250693 41.1759 0.273118C40.9366 0.302454 40.805 0.329956 40.805 0.329956C40.805 0.329956 40.8995 0.438133 41.0498 0.615983C41.1221 0.707659 41.2111 0.799333 41.2983 0.920344L41.5838 1.29805C41.9788 1.8481 42.3627 2.49349 42.7763 2.85836C42.9644 3.02597 43.1871 3.1511 43.429 3.22506C43.6385 3.28325 43.855 3.31287 44.0725 3.31307C44.313 3.31527 44.5527 3.28442 44.7846 3.22139C44.8916 3.00379 44.9552 2.76787 44.9719 2.52649L44.9719 2.52833ZM45.1759 7.73548C45.0014 7.65929 44.8079 7.63601 44.62 7.66857C44.4321 7.70113 44.2581 7.78807 44.1202 7.91839C43.9823 8.04871 43.8866 8.21656 43.8451 8.40069C43.8037 8.58482 43.8185 8.77696 43.8875 8.9528C43.9566 9.12864 44.0769 9.28027 44.2331 9.38852C44.3894 9.49675 44.5746 9.55673 44.7653 9.56087C44.9561 9.565 45.1438 9.51311 45.3047 9.41174C45.4656 9.31038 45.5924 9.1641 45.6692 8.99143C45.7716 8.75986 45.7772 8.49764 45.6848 8.262C45.5924 8.02636 45.4095 7.83643 45.1759 7.73364L45.1759 7.73548ZM45.0795 12.1762C45.1542 12.008 45.1768 11.8216 45.1444 11.6406C45.112 11.4596 45.0261 11.2922 44.8976 11.1595C44.769 11.0268 44.6035 10.9347 44.422 10.895C44.2406 10.8552 44.0513 10.8695 43.878 10.9361C43.7048 11.0027 43.5554 11.1185 43.4487 11.269C43.342 11.4195 43.2828 11.5979 43.2786 11.7816C43.2744 11.9653 43.3254 12.1461 43.4251 12.3012C43.5249 12.4563 43.6688 12.5787 43.8389 12.6529C44.0673 12.7521 44.3263 12.7577 44.5589 12.6683C44.7915 12.5789 44.9787 12.4019 45.0795 12.1762ZM26.9559 38.1203C26.9141 38.1408 26.8749 38.166 26.839 38.1955C26.763 38.2486 26.6888 38.3055 26.6128 38.3605C26.3098 38.6098 26.0671 38.923 25.9025 39.2772C25.7325 39.6493 25.6458 40.0534 25.6485 40.4617C25.6594 41.3248 25.9998 42.152 26.6017 42.7774C26.6777 42.8577 26.7595 42.9324 26.8465 43.0011L26.9744 43.1093C27.0161 43.1469 27.0607 43.1813 27.1079 43.2119L27.388 43.3953C27.4862 43.454 27.5882 43.5016 27.6884 43.5548C28.0959 43.7511 28.53 43.8882 28.9772 43.9618C29.413 44.032 29.8543 44.0633 30.2957 44.0554C31.1453 44.0222 31.9912 43.9284 32.8271 43.7748C33.656 43.6465 34.4961 43.4943 35.3343 43.355C36.1725 43.2156 37.0163 43.0836 37.8601 43.0066C38.6924 42.9187 39.5313 42.9095 40.3655 42.9791L40.6714 43.0158C40.7734 43.0286 40.8773 43.0341 40.9774 43.0561L41.2741 43.1129L41.4225 43.1368C41.4726 43.1478 41.5189 43.1624 41.569 43.1753C41.952 43.2708 42.3275 43.3934 42.6928 43.542C43.4147 43.8404 44.0952 44.2285 44.7179 44.6971C45.3011 45.1096 45.7791 45.6507 46.1143 46.2776C46.1869 46.4235 46.2441 46.5765 46.2849 46.7341C46.3269 46.89 46.3524 47.0497 46.3609 47.2108C46.3656 47.2939 46.3656 47.3771 46.3609 47.4602C46.3609 47.5463 46.3461 47.6288 46.3405 47.7114C46.3179 47.875 46.2807 48.0364 46.2293 48.1936C46.1237 48.5047 45.951 48.7894 45.723 49.0278C45.6066 49.1494 45.4773 49.2583 45.3373 49.3523C45.268 49.403 45.1962 49.4501 45.1221 49.4935C45.048 49.5302 44.9738 49.576 44.894 49.609C44.2607 49.8899 43.57 50.0217 42.8764 49.9941C42.2151 49.9773 41.5616 49.8489 40.944 49.6145C40.3728 49.4108 39.8569 49.0795 39.4364 48.6464C39.2502 48.4593 39.1077 48.2342 39.0189 47.9868C38.9302 47.7394 38.8973 47.4758 38.9227 47.2145C39.001 46.7424 39.214 46.3023 39.5365 45.9457C39.8038 45.6262 40.1482 45.3784 40.5379 45.2251C40.8604 45.0985 41.2116 45.0605 41.5542 45.1151C41.8256 45.1617 42.0807 45.2752 42.2959 45.4451L42.3961 45.5387C42.2005 45.5129 42.0021 45.5574 41.8369 45.6641C41.6718 45.7707 41.5508 45.9325 41.4961 46.1199C41.4414 46.3073 41.4566 46.5079 41.539 46.6852C41.6213 46.8625 41.7652 47.0047 41.9446 47.0858C42.124 47.167 42.3269 47.1818 42.5164 47.1275C42.7059 47.0732 42.8694 46.9534 42.9771 46.79C43.0848 46.6266 43.1296 46.4303 43.1033 46.237C43.077 46.0437 42.9813 45.8661 42.8337 45.7367C42.7398 45.5551 42.6143 45.3912 42.4628 45.2526C42.2244 45.0364 41.9296 44.8903 41.6117 44.8309C41.2158 44.758 40.8072 44.7987 40.4341 44.9483C39.9983 45.1191 39.6148 45.399 39.3214 45.7605C39.158 45.9566 39.0151 46.1685 38.8949 46.3931C38.7673 46.6398 38.6838 46.9066 38.6482 47.1815C38.6325 47.3265 38.6325 47.4728 38.6482 47.6178C38.6672 47.7677 38.702 47.9152 38.7521 48.0579C38.8605 48.3472 39.0235 48.6134 39.2324 48.8426C39.6786 49.3154 40.226 49.6838 40.8346 49.9207C41.485 50.1878 42.173 50.3547 42.8745 50.4158C43.6349 50.4897 44.4025 50.4111 45.1314 50.1848C45.3288 50.1234 45.52 50.0443 45.7026 49.9482C45.8995 49.854 46.086 49.7397 46.2589 49.6072C46.6211 49.3314 46.9205 48.9835 47.1379 48.5859C47.2463 48.3819 47.3369 48.169 47.4087 47.9497C47.4402 47.8397 47.4773 47.7279 47.5014 47.6142C47.5255 47.5005 47.5496 47.3887 47.5626 47.2676C47.5926 47.0514 47.6013 46.8328 47.5886 46.6149C47.6998 46.6553 47.8167 46.6938 47.9354 46.7249C48.1776 46.7925 48.4261 46.8355 48.6771 46.8533C48.9244 46.8732 49.1731 46.8665 49.4189 46.8331C49.5361 46.8191 49.6525 46.7989 49.7676 46.7726C49.8825 46.7488 49.9957 46.7158 50.1069 46.6846C50.3285 46.6116 50.5437 46.5208 50.7504 46.4132C51.1527 46.1993 51.5042 45.903 51.7815 45.5442C51.9147 45.3762 52.0309 45.1956 52.1283 45.0051C52.2236 44.823 52.3036 44.6336 52.3675 44.4386C52.5971 43.7117 52.6734 42.946 52.5919 42.1888C52.5312 41.4949 52.3616 40.8144 52.0893 40.172C51.8501 39.571 51.4789 39.0299 51.0026 38.5878C50.7698 38.3823 50.4999 38.2218 50.2071 38.1148C50.0638 38.064 49.9151 38.0295 49.7639 38.0121C49.6165 37.9965 49.468 37.9965 49.3206 38.0121C49.038 38.0491 48.7642 38.1354 48.5121 38.267C48.2838 38.3858 48.0682 38.5271 47.8686 38.6887C47.5057 38.9854 47.225 39.3683 47.0526 39.8016C46.9047 40.1701 46.8642 40.5722 46.9358 40.9622C46.9954 41.2773 47.1432 41.5695 47.3623 41.8056C47.5027 41.9551 47.6684 42.0792 47.8519 42.1723C47.9851 42.316 48.1662 42.4075 48.362 42.4302C48.5578 42.4528 48.7553 42.4051 48.9185 42.2957C49.0817 42.1863 49.1996 42.0226 49.2508 41.8343C49.302 41.6461 49.283 41.446 49.1973 41.2704C49.1116 41.0949 48.965 40.9556 48.7841 40.8782C48.6032 40.8007 48.4001 40.7901 48.212 40.8483C48.0238 40.9065 47.8632 41.0297 47.7593 41.1954C47.6554 41.3611 47.6152 41.5581 47.6461 41.7506C47.6145 41.7195 47.583 41.6846 47.5533 41.6498C47.3797 41.4378 47.2642 41.1853 47.2177 40.9164C47.1613 40.5776 47.2004 40.2299 47.3308 39.9116C47.4849 39.5269 47.735 39.1869 48.0578 38.9234C48.418 38.6035 48.8633 38.3923 49.341 38.3147C49.6051 38.2896 49.8716 38.3215 50.122 38.4083C50.3724 38.495 50.6007 38.6345 50.7912 38.817C51.2277 39.2337 51.562 39.7436 51.7685 40.3077C52.0058 40.9188 52.1356 41.5656 52.1524 42.22C52.1809 42.9051 52.0482 43.5873 51.7648 44.213C51.7277 44.2919 51.6851 44.3652 51.6443 44.4422C51.6035 44.5192 51.5571 44.5852 51.5052 44.6549C51.4088 44.7919 51.2982 44.9185 51.1751 45.0326C50.9344 45.2581 50.6472 45.4295 50.3332 45.535C50.1741 45.5851 50.0109 45.6213 49.8455 45.6432C49.7583 45.6432 49.6767 45.6615 49.5895 45.6633C49.5056 45.6698 49.4213 45.6698 49.3373 45.6633C49.174 45.6571 49.0121 45.6312 48.8552 45.5863C48.6955 45.5476 48.5407 45.4917 48.3934 45.4195C47.7591 45.0879 47.2112 44.6153 46.793 44.0389C46.32 43.423 45.928 42.7502 45.6266 42.0367C45.4757 41.6751 45.3518 41.3031 45.2557 40.9237C45.2407 40.8775 45.2289 40.8304 45.2204 40.7825L45.1908 40.634L45.137 40.3388C45.1147 40.2398 45.1073 40.139 45.0925 40.0418L45.0572 39.7356C44.9869 38.9109 44.9962 38.0815 45.0851 37.2586C45.1611 36.4243 45.2946 35.5919 45.4355 34.7632C45.5765 33.9344 45.7341 33.1002 45.8621 32.2843C46.0156 31.457 46.1104 30.6201 46.1458 29.7797C46.1539 29.3432 46.1222 28.9069 46.0512 28.4761C45.9782 28.0306 45.8395 27.5982 45.6395 27.1926C45.5858 27.0936 45.5357 26.9928 45.4763 26.8993L45.2909 26.6187C45.2605 26.5721 45.2264 26.528 45.1889 26.4867L45.0795 26.3602C45.0092 26.2744 44.9323 26.1941 44.8495 26.12C44.2197 25.522 43.3824 25.1848 42.5092 25.1776C42.0971 25.1756 41.6893 25.2607 41.3131 25.427C40.9542 25.5894 40.6372 25.8301 40.3859 26.131C40.3302 26.2044 40.2727 26.2777 40.219 26.3529C40.1911 26.3877 40.167 26.428 40.1411 26.4684C40.1151 26.5087 40.0947 26.5491 40.0743 26.5894C39.9935 26.7438 39.9271 26.9052 39.8759 27.0716C39.7741 27.3761 39.7118 27.6922 39.6904 28.0122C39.6689 28.312 39.68 28.6132 39.7238 28.9106C39.7652 29.1954 39.8483 29.4727 39.9705 29.7339C40.0877 29.9889 40.2584 30.2163 40.4712 30.4013C40.6737 30.5712 40.9148 30.6901 41.174 30.7478C41.4017 30.7969 41.6363 30.8074 41.8676 30.779C42.078 30.7562 42.283 30.6985 42.474 30.6084C42.6514 30.5257 42.807 30.4033 42.9283 30.2509C43.0354 30.1158 43.1045 29.9552 43.1286 29.7852C43.1483 29.6372 43.1337 29.4867 43.086 29.3452C43.0474 29.2395 42.9944 29.1395 42.9283 29.0481C42.8756 28.8415 42.743 28.6636 42.559 28.5526C42.3751 28.4416 42.1545 28.4063 41.9445 28.4543C41.7345 28.5023 41.552 28.6298 41.436 28.8093C41.32 28.9889 41.2799 29.2063 41.3242 29.4148C41.3689 29.6061 41.482 29.7749 41.6427 29.8903C41.8034 30.0056 42.0008 30.0596 42.1985 30.0424C42.3963 30.0253 42.5812 29.938 42.719 29.7967C42.8569 29.6554 42.9384 29.4697 42.9487 29.2736C42.9609 29.3061 42.9714 29.3391 42.9802 29.3727C43.0081 29.4983 43.0081 29.6284 42.9802 29.754C42.9452 29.8915 42.8749 30.0178 42.7763 30.1207C42.6637 30.2347 42.526 30.3213 42.3738 30.3737C42.2046 30.4327 42.0266 30.463 41.8472 30.4636C41.6533 30.4661 41.4603 30.437 41.276 30.3774C41.0908 30.3119 40.9233 30.2053 40.7864 30.0657C40.5015 29.721 40.3485 29.288 40.3543 28.8428C40.3339 28.3315 40.4316 27.8223 40.6399 27.354C40.6905 27.237 40.7527 27.1252 40.8254 27.0203C40.8405 26.9934 40.8585 26.9682 40.8791 26.9451C40.8977 26.9231 40.9144 26.8974 40.9366 26.8754L41.0646 26.7397C41.245 26.5733 41.4603 26.4481 41.6951 26.373C41.9422 26.2949 42.2033 26.2699 42.461 26.2997C42.7329 26.3301 42.9965 26.411 43.238 26.5381C43.4835 26.6634 43.702 26.8346 43.8815 27.0423C43.9292 27.0944 43.9726 27.1502 44.0113 27.2091L44.0725 27.2971C44.0964 27.3256 44.1163 27.357 44.1319 27.3906L44.2357 27.574C44.2691 27.64 44.2913 27.7115 44.321 27.7775C44.4305 28.0649 44.4985 28.3661 44.5232 28.6723C44.5478 29.0093 44.5447 29.3478 44.5139 29.6844C44.4768 30.0382 44.4212 30.4013 44.347 30.7845C44.2728 31.1677 44.1856 31.5454 44.0966 31.9506L43.8296 33.157C43.7369 33.564 43.6441 33.9802 43.5533 34.4038C43.3678 35.2509 43.2102 36.1309 43.1082 37.0514C42.9944 38.0039 42.982 38.9657 43.0711 39.9208L43.1193 40.2875C43.136 40.4122 43.1471 40.535 43.175 40.6542C43.2028 40.7734 43.2269 40.8962 43.2491 41.0209L43.2862 41.2042C43.3011 41.2666 43.3196 41.3271 43.3363 41.3876C43.3678 41.5086 43.4012 41.6296 43.4402 41.7543C42.9862 41.5599 42.5182 41.3993 42.04 41.2739C41.9807 41.2593 41.9195 41.2409 41.8546 41.2263L41.6691 41.1914C41.5449 41.1658 41.4225 41.1401 41.2983 41.1181C41.1757 41.0929 41.0519 41.0739 40.9274 41.0612C40.805 41.0466 40.6807 41.0282 40.5565 41.0136C39.5898 40.9245 38.6164 40.9368 37.6524 41.0502C36.7522 41.1524 35.8579 41.2992 34.9727 41.4903C34.5443 41.5783 34.1233 41.6736 33.7135 41.7616C33.3037 41.8496 32.8957 41.945 32.4914 42.0275C32.0872 42.11 31.6922 42.2017 31.312 42.2769C30.9318 42.352 30.5702 42.4015 30.1993 42.44C29.8589 42.4705 29.5166 42.4735 29.1757 42.4492C28.8656 42.4261 28.5607 42.3581 28.2707 42.2475C28.2039 42.22 28.1297 42.198 28.0648 42.165C27.9999 42.132 27.9369 42.0972 27.8794 42.0605C27.8471 42.0446 27.8161 42.0262 27.7867 42.0055L27.6977 41.9413C27.6378 41.9041 27.5813 41.8617 27.5289 41.8148C27.3189 41.6374 27.1457 41.4213 27.0189 41.1786C26.8909 40.9393 26.808 40.679 26.7741 40.4103C26.7456 40.1555 26.7715 39.8975 26.8502 39.6531C26.9275 39.421 27.0539 39.2079 27.2211 39.0279L27.3583 38.9014C27.38 38.8804 27.4036 38.8613 27.4287 38.8445C27.4529 38.8262 27.477 38.8097 27.5048 38.7914C27.6111 38.7208 27.7234 38.6595 27.8404 38.608C28.3146 38.4033 28.8292 38.3062 29.3463 38.3238C29.7972 38.3181 30.2355 38.4708 30.5832 38.7547C30.7275 38.8875 30.8359 39.0539 30.8984 39.2387C30.96 39.4201 30.9901 39.6104 30.9875 39.8016C30.9867 39.979 30.956 40.155 30.8966 40.3223C30.844 40.4719 30.7563 40.607 30.6407 40.7165C30.5372 40.8153 30.4093 40.8855 30.2698 40.9201C30.1435 40.9494 30.0121 40.9494 29.8859 40.9201C29.8507 40.9201 29.8191 40.9017 29.7858 40.8926C29.9938 40.8831 30.1905 40.7959 30.3362 40.6488C30.4819 40.5016 30.5657 40.3054 30.5709 40.0995C30.576 39.8936 30.5021 39.6935 30.364 39.5394C30.2258 39.3853 30.0338 39.2887 29.8264 39.269C29.6191 39.2493 29.412 39.3081 29.2467 39.4334C29.0814 39.5587 28.9703 39.7412 28.9358 39.9443C28.9012 40.1474 28.9458 40.3558 29.0605 40.5277C29.1752 40.6996 29.3515 40.8221 29.554 40.8706C29.6462 40.9373 29.7481 40.9898 29.8562 41.0264C29.9979 41.0717 30.1479 41.0861 30.2957 41.0686C30.4688 41.0448 30.6325 40.9765 30.7705 40.8706C30.9269 40.7513 31.0538 40.5983 31.1414 40.4232C31.2317 40.2334 31.2899 40.0302 31.3138 39.8218C31.342 39.593 31.3307 39.3611 31.2805 39.1361C31.223 38.8801 31.1026 38.6421 30.93 38.443C30.7441 38.2321 30.5145 38.0633 30.2568 37.948C29.993 37.8261 29.7124 37.7433 29.4241 37.7023C29.1234 37.6581 28.8187 37.647 28.5155 37.6693C28.1919 37.6911 27.8723 37.7527 27.5641 37.8526C27.3965 37.9042 27.2334 37.9692 27.0764 38.047C27.0356 38.0726 26.9967 38.0946 26.9559 38.1203ZM18.2918 38.5145C18.205 38.5685 18.1231 38.6298 18.047 38.6979C17.971 38.7584 17.9042 38.817 17.8431 38.872C17.7334 38.97 17.6402 39.0845 17.5667 39.2112C17.4369 39.4203 17.411 39.5779 17.4851 39.6916C17.5458 39.7504 17.6193 39.7947 17.7 39.8211C17.7807 39.8475 17.8664 39.8553 17.9506 39.8438C18.06 39.8438 18.1824 39.8291 18.3215 39.8236C18.392 39.8236 18.4643 39.8108 18.5403 39.7998C18.6182 39.7868 18.6969 39.7788 18.7758 39.776C18.9427 39.765 19.1134 39.7356 19.3007 39.7319C19.3915 39.7319 19.4861 39.7209 19.5825 39.7154C19.679 39.7099 19.781 39.7154 19.883 39.7154C20.3183 39.7156 20.7527 39.7543 21.1811 39.831C21.6317 39.9171 22.0601 40.0143 22.4792 40.1115C22.6776 40.1757 22.8835 40.2178 23.0634 40.2948C23.1561 40.3278 23.2488 40.3517 23.3378 40.3865C23.4268 40.4213 23.5103 40.4525 23.5919 40.4837C23.7625 40.5424 23.9034 40.6175 24.0425 40.667C24.1074 40.6982 24.176 40.7239 24.228 40.7514L24.3837 40.8357C24.5692 40.9347 24.6953 40.9897 24.6953 40.9897C24.6953 40.9897 24.6767 40.8687 24.6174 40.6469L24.5636 40.4635C24.5432 40.3975 24.5117 40.3315 24.4802 40.2545C24.4082 40.0836 24.3213 39.9192 24.2205 39.7631C24.1649 39.6769 24.1037 39.5798 24.0351 39.4918C23.9665 39.4038 23.8867 39.3084 23.8033 39.2204C23.626 39.0235 23.429 38.8447 23.2154 38.6869C22.7135 38.3252 22.1385 38.075 21.5297 37.9535C20.9163 37.8413 20.2868 37.8463 19.6753 37.9681C19.538 37.9975 19.4008 38.0323 19.2728 38.0635C19.1449 38.0946 19.0206 38.1533 18.9019 38.1991C18.6883 38.2835 18.4839 38.3892 18.2918 38.5145ZM16.9585 45.6927C16.8846 46.2843 16.9584 46.8849 17.1736 47.4418C17.3078 47.8082 17.5277 48.138 17.8152 48.4044C18.0322 48.5878 18.2065 48.6354 18.3215 48.5731C18.5607 48.4393 18.4754 47.891 18.507 47.1778C18.5414 46.2964 18.8219 45.4416 19.3173 44.7081C19.8541 43.8918 20.4723 43.1307 21.1625 42.4364C21.4518 42.1448 21.7077 41.912 21.9043 41.7488L22.1992 41.4921C22.1992 41.4921 22.1639 41.4921 22.0972 41.4921C22.0304 41.4921 21.9284 41.4793 21.8005 41.4793C21.4335 41.4807 21.068 41.5256 20.7119 41.6131C20.174 41.7422 19.6611 41.9571 19.1931 42.2493C18.599 42.618 18.0929 43.1097 17.7095 43.6905C17.3068 44.2919 17.0498 44.9771 16.9585 45.6927ZM23.59 47.5518C23.7291 46.9358 23.8496 46.1125 24.0833 45.3241C24.2001 44.9318 24.304 44.5816 24.4245 44.268C24.5359 43.9734 24.6875 43.6951 24.8752 43.4411C25.0306 43.2405 25.2064 43.0561 25.4 42.8911C25.5557 42.7627 25.6466 42.6912 25.6466 42.6912C25.5435 42.6533 25.4375 42.6239 25.3295 42.6032C25.0225 42.5459 24.7069 42.5515 24.4023 42.6197C24.1799 42.6684 23.9653 42.7468 23.7643 42.8526C23.5319 42.9779 23.3174 43.1333 23.1264 43.3146C22.7098 43.721 22.4053 44.2259 22.2418 44.7814C21.9696 45.7102 21.9696 46.6964 22.2418 47.6252C22.4569 48.3164 22.7815 48.6868 23.0392 48.6391C23.297 48.5914 23.4509 48.1679 23.59 47.5518ZM26.5423 48.7271C26.8673 48.9175 27.222 49.0532 27.5919 49.1287C28.3016 49.2568 29.0302 49.2418 29.7338 49.0847C30.0698 49.0171 30.4011 48.9289 30.726 48.8206C31.0479 48.7059 31.3614 48.5692 31.6643 48.4118C32.1915 48.1304 32.6939 47.8059 33.1664 47.4418C34.0065 46.7909 34.5814 46.2556 35.0747 45.876C35.4636 45.5602 35.8887 45.2906 36.3413 45.0729C36.6433 44.9391 36.9529 44.8228 37.2685 44.7246C37.4929 44.6622 37.6153 44.6146 37.6153 44.6146C37.5317 44.5221 37.4392 44.438 37.339 44.3634C37.017 44.1306 36.6473 43.9703 36.256 43.894C35.5395 43.768 34.8017 43.8443 34.1271 44.114C33.3092 44.4129 32.4988 44.9556 31.7033 45.568C31.3064 45.8724 30.9059 46.1877 30.496 46.4646C30.2902 46.6021 30.0825 46.7323 29.8711 46.8478C29.6597 46.9633 29.4167 47.0605 29.1701 47.1668C28.7271 47.3625 28.2536 47.4821 27.77 47.5207C27.5624 47.5306 27.3546 47.5114 27.1524 47.4638L27.0245 47.4345C26.9909 47.4282 26.9584 47.4171 26.928 47.4015C26.8615 47.3772 26.799 47.3432 26.7426 47.3007C26.6185 47.2077 26.5312 47.0747 26.496 46.9248C26.4625 46.7721 26.4898 46.6126 26.572 46.4792C26.7595 46.2243 27.0403 46.0519 27.3546 45.9989C27.6104 45.9424 27.8714 45.9123 28.1334 45.909L28.4283 45.909C28.4283 45.909 28.33 45.8724 28.1501 45.81C27.8855 45.7162 27.6102 45.6546 27.3305 45.6267C27.2305 45.6182 27.13 45.6182 27.03 45.6267C26.973 45.6268 26.916 45.6305 26.8594 45.6377C26.8001 45.6468 26.7389 45.6578 26.674 45.667C26.4014 45.7187 26.1464 45.8372 25.9322 46.0117C25.6836 46.2188 25.5178 46.5068 25.4649 46.8239C25.4074 47.1852 25.4761 47.5551 25.6596 47.8727C25.7056 47.9613 25.7609 48.0449 25.8246 48.1221C25.8867 48.2062 25.9562 48.2848 26.0323 48.3567C26.1083 48.4326 26.1901 48.5025 26.2771 48.5658C26.3198 48.5969 26.368 48.6336 26.4088 48.6593L26.5423 48.7271ZM36.6324 48.6409C36.6288 48.486 36.6363 48.331 36.6547 48.1771C36.6697 47.9685 36.697 47.761 36.7363 47.5555C36.7955 47.3222 36.8755 47.0946 36.9755 46.8753L37.224 46.3344C37.2815 46.1932 37.3075 46.1052 37.3075 46.1052C37.2411 46.0577 37.1696 46.0177 37.0942 45.986C36.8823 45.8903 36.6522 45.8403 36.4192 45.8393C35.997 45.8376 35.5857 45.9715 35.2471 46.2207C34.9947 46.4023 34.7826 46.6332 34.6241 46.8991C34.4352 47.2178 34.3182 47.573 34.281 47.9405C34.2447 48.3293 34.2837 48.7213 34.396 49.0956C34.5052 49.4562 34.6683 49.7986 34.88 50.1114C35.263 50.6748 35.7599 51.1536 36.3394 51.5177C36.7625 51.7851 37.223 51.9896 37.7062 52.1246C37.8455 52.1617 37.9866 52.1916 38.129 52.2144C38.2254 52.2291 38.281 52.2383 38.281 52.2383L38.1772 52.1246C38.1104 52.0549 38.0177 51.9412 37.9102 51.8129C37.6394 51.4706 37.4046 51.102 37.2092 50.7128C36.9836 50.2594 36.8172 49.7794 36.714 49.2845C36.6698 49.0724 36.6425 48.8572 36.6324 48.6409ZM6.20446 45.5332C6.53884 45.7442 6.90687 45.898 7.29303 45.9879C7.9429 46.1314 8.61453 46.1507 9.27173 46.0447C10.2631 45.877 11.2278 45.5804 12.1406 45.1628C12.9046 44.8309 13.4906 44.5321 13.906 44.334C14.3214 44.136 14.5569 44.0389 14.5569 44.0389C14.3149 44.024 14.0721 44.024 13.83 44.0389C13.3645 44.0664 12.6932 44.1452 11.8884 44.2405C10.9842 44.3693 10.0721 44.4354 9.15862 44.4386C8.69489 44.4386 8.23392 44.3681 7.79188 44.2295C7.60239 44.1682 7.42351 44.0786 7.2615 43.9637C7.10957 43.8524 6.97574 43.7189 6.86465 43.5676C6.83683 43.5236 6.81087 43.4796 6.78306 43.4393C6.75524 43.399 6.7404 43.3586 6.71444 43.3183L6.68291 43.2578C6.67509 43.2407 6.66887 43.2229 6.66437 43.2046C6.66437 43.1643 6.63841 43.1368 6.63099 43.0891C6.58683 42.9129 6.57614 42.7301 6.59946 42.55C6.65279 42.1571 6.80661 41.7842 7.04638 41.4664C7.28239 41.1421 7.57205 40.8595 7.90315 40.6304C8.1948 40.4294 8.5164 40.2748 8.85634 40.172C9.36074 40.0221 9.89856 40.0221 10.403 40.172C10.7924 40.2875 11.0446 40.3993 11.1447 40.3022C11.193 40.2582 11.1948 40.1702 11.1447 40.0381C11.1148 39.9581 11.0743 39.8822 11.0242 39.8126C10.9588 39.7172 10.8836 39.6287 10.7998 39.5486C10.5631 39.3178 10.2792 39.1396 9.96717 39.0261C9.54631 38.8736 9.09756 38.8111 8.6505 38.8427C7.48973 38.9464 6.41638 39.496 5.6611 40.3737C5.17843 40.9151 4.85742 41.5784 4.73387 42.2897C4.66606 42.6919 4.67612 43.1031 4.76354 43.5016C4.85734 43.9267 5.03643 44.3288 5.29021 44.6842C5.53823 45.0211 5.84614 45.3107 6.1989 45.5387L6.20446 45.5332ZM5.57766 46.8478C5.65166 46.7998 5.72286 46.7478 5.79092 46.6919C5.79092 46.6919 5.70932 46.6351 5.57023 46.5507C5.43115 46.4664 5.24014 46.3436 5.02688 46.2097C4.81362 46.0759 4.58181 45.9182 4.35927 45.755C4.13674 45.5918 3.92904 45.4506 3.69723 45.2875C3.49069 45.147 3.29369 44.9932 3.10751 44.8273C3.06486 44.7869 3.02035 44.7447 2.97585 44.7081C2.93134 44.6714 2.8961 44.6237 2.85531 44.5834C2.76629 44.5064 2.69768 44.4184 2.61794 44.3432C2.31752 44.0315 2.05047 43.7712 1.77972 43.8097C1.7059 43.8269 1.63749 43.8618 1.58057 43.9114C1.52364 43.961 1.47994 44.0236 1.45333 44.0939C1.35428 44.3212 1.3172 44.5703 1.34578 44.8163C1.35844 44.9843 1.39017 45.1503 1.44036 45.3113C1.47003 45.3993 1.49785 45.4946 1.53864 45.5827C1.57944 45.6707 1.6258 45.766 1.67587 45.8559C1.91051 46.2564 2.23308 46.5997 2.61979 46.8606C2.99859 47.1112 3.43724 47.2591 3.89195 47.2897C4.48748 47.3273 5.07923 47.1722 5.57766 46.8478ZM12.964 39.7888C12.9881 39.8933 13.0159 39.9996 13.0456 40.1096C13.0752 40.2197 13.1346 40.3242 13.1865 40.4342C13.4208 40.9169 13.7725 41.3345 14.2102 41.6498C14.6496 41.9553 15.1667 42.1331 15.703 42.1632C15.8254 42.1632 15.9422 42.1632 16.0535 42.1632C16.1648 42.1632 16.276 42.132 16.3799 42.1118C16.7233 42.0451 17.049 41.9091 17.3368 41.7121C17.4338 41.6488 17.5239 41.5757 17.6057 41.4939C17.7411 41.3619 17.806 41.2831 17.806 41.2831C17.806 41.2831 17.704 41.2556 17.5259 41.2061C17.2998 41.151 17.0779 41.0799 16.862 40.9934C16.7341 40.9347 16.6024 40.8944 16.4708 40.81C16.4077 40.7752 16.3391 40.7477 16.276 40.711C16.213 40.6744 16.1462 40.634 16.0906 40.5992C15.8347 40.4415 15.5936 40.2783 15.3488 40.1041C15.1163 39.9335 14.9031 39.7386 14.7127 39.5229L14.5792 39.3726C14.5403 39.3194 14.5032 39.2662 14.4624 39.2149C14.3715 39.1159 14.3196 39.004 14.2435 38.9069C14.1156 38.7052 13.9858 38.52 13.8727 38.3807C13.831 38.3173 13.7765 38.2631 13.7127 38.2214C13.6489 38.1798 13.5771 38.1516 13.5018 38.1386C13.3701 38.1386 13.2458 38.2156 13.1309 38.3917C12.9911 38.6393 12.9183 38.9185 12.9195 39.2021C12.9106 39.3987 12.9255 39.5957 12.964 39.7888ZM3.43019 42.7114C3.49378 42.482 3.5256 42.2452 3.52477 42.0073C3.52342 41.7917 3.49349 41.5772 3.43575 41.3693C3.36051 41.1303 3.234 40.9101 3.06486 40.7239C2.69396 40.3168 2.03749 39.9355 1.48857 39.5449C1.35134 39.4459 1.22153 39.3524 1.1047 39.2662C0.987871 39.1801 0.889582 39.0829 0.796858 39.0169L0.505709 38.7767C0.505709 38.7767 0.477888 38.9124 0.446364 39.1434C0.425631 39.2837 0.413866 39.4252 0.411127 39.5669C0.411127 39.7246 0.411127 39.9043 0.429671 40.0968C0.470034 40.502 0.561617 40.9005 0.702276 41.2831C0.737513 41.3821 0.776461 41.4793 0.815405 41.5746C0.854349 41.67 0.908125 41.758 0.956339 41.8368C1.04408 41.9998 1.15116 42.1518 1.27531 42.2897C1.47508 42.5171 1.73046 42.69 2.01709 42.7921C2.24196 42.8725 2.48147 42.9049 2.71993 42.8874C2.96602 42.875 3.20729 42.8152 3.43019 42.7114ZM7.99958 43.0946C8.07608 43.2669 8.20253 43.4129 8.36295 43.5142C8.52337 43.6154 8.71055 43.6674 8.90083 43.6635C9.09112 43.6596 9.27596 43.6 9.43199 43.4923C9.58803 43.3845 9.70825 43.2334 9.77746 43.0581C9.84667 42.8829 9.86175 42.6912 9.82082 42.5074C9.77988 42.3237 9.68476 42.156 9.54746 42.0257C9.41017 41.8954 9.23688 41.8082 9.0495 41.7752C8.86212 41.7423 8.66905 41.765 8.49472 41.8405C8.26112 41.9422 8.07783 42.1313 7.98501 42.3664C7.8922 42.6014 7.89744 42.8633 7.99958 43.0946ZM11.2523 42.5225C11.3271 42.6909 11.4507 42.8335 11.6075 42.9324C11.7643 43.0313 11.9473 43.0819 12.1332 43.078C12.3191 43.0741 12.4997 43.0157 12.6521 42.9103C12.8045 42.8049 12.9218 42.6572 12.9893 42.4858C13.0567 42.3145 13.0713 42.1272 13.0311 41.9476C12.9909 41.7681 12.8977 41.6044 12.7634 41.4772C12.6291 41.3501 12.4596 41.2651 12.2765 41.2332C12.0933 41.2012 11.9047 41.2237 11.7345 41.2978C11.5063 41.397 11.3273 41.5818 11.2369 41.8115C11.1465 42.0411 11.152 42.2969 11.2523 42.5225Z" fill="url(#paint0_linear_140_627)"/>
<defs>
<linearGradient id="paint0_linear_140_627" x1="60.5681" y1="29.2904" x2="0.411186" y2="29.2904" gradientUnits="userSpaceOnUse">
<stop stop-color="#FDC300"/>
<stop offset="0.419023" stop-color="#FFD74F"/>
<stop offset="1" stop-color="#FDC300"/>
</linearGradient>
</defs>
</svg>
