<svg width="35" height="25" viewBox="0 0 35 25" fill="none" xmlns="http://www.w3.org/2000/svg">
<g clip-path="url(#clip0_98_831)">
<path d="M34.4987 7.01152C34.3383 6.79918 34.1417 6.62919 33.9218 6.51269C33.702 6.39619 33.4638 6.3358 33.2228 6.33545H31.654V1.94562C31.654 1.5941 31.5359 1.25692 31.3256 1.00806C31.1153 0.759207 30.83 0.618982 30.5323 0.618164H26.8718C26.574 0.618982 26.2888 0.759207 26.0785 1.00806C25.8682 1.25692 25.7501 1.5941 25.7501 1.94562V4.46777C25.7501 4.67245 25.819 4.86875 25.9416 5.01349C26.0641 5.15822 26.2304 5.23954 26.4038 5.23954C26.5771 5.23954 26.7434 5.15822 26.866 5.01349C26.9886 4.86875 27.0574 4.67245 27.0574 4.46777V2.16171H30.344V6.33545H2.53725C2.29625 6.3358 2.05807 6.39619 1.8382 6.51269C1.61833 6.62919 1.42175 6.79918 1.26133 7.01152C1.1043 7.22005 0.986137 7.46521 0.914518 7.73112C0.8429 7.99702 0.819405 8.27775 0.845577 8.55506C1.38419 13.9698 4.79633 18.4955 9.63081 20.9281L7.8319 22.6538C7.76523 22.7178 7.70995 22.7967 7.66913 22.886C7.62831 22.9752 7.6028 23.0731 7.59406 23.174C7.58532 23.275 7.59352 23.3769 7.61819 23.4741C7.64286 23.5713 7.6835 23.6618 7.73781 23.7404C7.79918 23.8293 7.87655 23.9009 7.9643 23.95C8.05204 23.9991 8.14793 24.0245 8.24504 24.0244C8.39474 24.025 8.53993 23.9638 8.65556 23.8515L11.0427 21.564C13.2476 22.4285 15.5567 22.8654 17.88 22.8575C20.3636 22.8684 22.8296 22.3669 25.167 21.3757L27.7477 23.8454C27.8633 23.9576 28.0085 24.0188 28.1582 24.0183C28.2553 24.0184 28.3512 23.9929 28.4389 23.9438C28.5267 23.8947 28.604 23.8231 28.6654 23.7342C28.7197 23.6556 28.7604 23.5651 28.7851 23.468C28.8097 23.3708 28.8179 23.2688 28.8092 23.1679C28.8005 23.0669 28.775 22.969 28.7341 22.8798C28.6933 22.7905 28.638 22.7116 28.5713 22.6476L26.5476 20.7058C31.1598 18.2361 34.3915 13.8062 34.9144 8.54888C34.9392 8.2726 34.915 7.99325 34.8435 7.72859C34.7719 7.46393 34.6545 7.21974 34.4987 7.01152ZM17.88 21.3294C9.77463 21.3294 2.86669 15.6461 2.14243 8.39144C2.13621 8.32801 2.14163 8.26376 2.15833 8.20303C2.17502 8.14231 2.20262 8.08654 2.2392 8.03952C2.2758 7.98849 2.32147 7.94763 2.373 7.91988C2.42453 7.89212 2.48061 7.87816 2.53725 7.87899H33.2228C33.2793 7.87859 33.3353 7.89274 33.3868 7.92046C33.4383 7.94818 33.484 7.98882 33.5208 8.03952C33.5574 8.08646 33.5848 8.14231 33.601 8.20313C33.6173 8.26394 33.6221 8.32822 33.615 8.39144C32.8933 15.6461 25.9802 21.3294 17.88 21.3294Z" fill="#A4A4A4"/>
</g>
<defs>
<clipPath id="clip0_98_831">
<rect width="34.0924" height="23.4217" fill="white" transform="translate(0.83252 0.618164)"/>
</clipPath>
</defs>
</svg>
