<svg width="40" height="24" viewBox="0 0 40 24" fill="none" xmlns="http://www.w3.org/2000/svg">
<g clip-path="url(#clip0_98_826)">
<path d="M37.8167 9.22341H35.8294V1.78342C35.831 1.32418 35.6524 0.882977 35.3327 0.556287C35.013 0.229597 34.5782 0.0439885 34.1234 0.0400391H6.65323C6.19815 0.0432017 5.76293 0.228567 5.44308 0.555429C5.12323 0.88229 4.9449 1.32394 4.94726 1.78342V9.22341H2.70817C2.48413 9.22341 2.26234 9.26795 2.05537 9.35451C1.84839 9.44107 1.66033 9.56796 1.50192 9.7279C1.34351 9.88784 1.2178 10.0777 1.13206 10.2867C1.04633 10.4957 1.0022 10.7197 1.0022 10.9459V18.036C1.0022 18.2621 1.04633 18.4861 1.13206 18.6951C1.2178 18.9041 1.34351 19.094 1.50192 19.2539C1.66033 19.4138 1.84839 19.5407 2.05537 19.6273C2.26234 19.7139 2.48413 19.7584 2.70817 19.7584H7.49439V22.4019C7.49439 22.6001 7.57238 22.7903 7.71124 22.9305C7.8501 23.0707 8.03845 23.1495 8.23483 23.1495C8.4312 23.1495 8.61948 23.0707 8.75834 22.9305C8.8972 22.7903 8.97526 22.6001 8.97526 22.4019V19.7584H31.9258V22.4019C31.9258 22.6001 32.0038 22.7903 32.1427 22.9305C32.2815 23.0707 32.4698 23.1495 32.6662 23.1495C32.8626 23.1495 33.0509 23.0707 33.1898 22.9305C33.3287 22.7903 33.4067 22.6001 33.4067 22.4019V19.7584H37.8286C38.281 19.7584 38.7149 19.5769 39.0348 19.2539C39.3548 18.9309 39.5345 18.4928 39.5345 18.036V10.9399C39.5338 10.7132 39.4887 10.4888 39.4018 10.2798C39.315 10.0707 39.1882 9.881 39.0286 9.72153C38.869 9.56206 38.6798 9.43597 38.4718 9.35049C38.2639 9.26501 38.0412 9.22183 37.8167 9.22341ZM6.4222 1.78342C6.41979 1.72045 6.4421 1.65907 6.48425 1.6126C6.52639 1.56613 6.58497 1.53832 6.6473 1.53521H34.1293C34.1917 1.53832 34.2503 1.56613 34.2924 1.6126C34.3346 1.65907 34.3569 1.72045 34.3544 1.78342V9.22341H33.3089V6.45434C33.2859 6.01984 33.0936 5.61216 32.774 5.32027C32.4544 5.02839 32.0335 4.876 31.603 4.89636H22.5933C22.1628 4.876 21.7419 5.02839 21.4223 5.32027C21.1026 5.61216 20.9104 6.01984 20.8874 6.45434V9.22041H19.7945V6.45434C19.7715 6.01984 19.5792 5.61216 19.2596 5.32027C18.94 5.02839 18.519 4.876 18.0886 4.89636H9.07592C8.64543 4.876 8.22449 5.02839 7.90489 5.32027C7.58528 5.61216 7.39294 6.01984 7.36995 6.45434V9.22041H6.41628L6.4222 1.78342ZM22.3742 9.22341V6.48126C22.4042 6.45091 22.4404 6.42744 22.4803 6.41247C22.5202 6.39751 22.5628 6.39139 22.6052 6.39453H31.6148C31.6939 6.3963 31.7712 6.41789 31.8399 6.45733V9.22341H22.3742ZM8.85675 9.22341V6.48126C8.88683 6.45091 8.92304 6.42744 8.9629 6.41247C9.00276 6.39751 9.04536 6.39139 9.08778 6.39453H18.1003C18.1795 6.39566 18.257 6.41729 18.3254 6.45733V9.22341H8.85675ZM38.0477 18.036C38.0477 18.0962 38.024 18.154 37.9818 18.1967C37.9396 18.2393 37.8823 18.2632 37.8226 18.2632H2.70224C2.67268 18.2632 2.64343 18.2573 2.61612 18.2459C2.58881 18.2345 2.56399 18.2178 2.54309 18.1967C2.52218 18.1756 2.50559 18.1505 2.49428 18.1229C2.48297 18.0954 2.47714 18.0658 2.47714 18.036V10.9399C2.47714 10.91 2.48297 10.8805 2.49428 10.8529C2.50559 10.8253 2.52218 10.8003 2.54309 10.7792C2.56399 10.7581 2.58881 10.7413 2.61612 10.7299C2.64343 10.7185 2.67268 10.7126 2.70224 10.7126H37.8226C37.8823 10.7126 37.9396 10.7365 37.9818 10.7792C38.024 10.8218 38.0477 10.8796 38.0477 10.9399V18.036Z" fill="#A4A4A4"/>
</g>
<defs>
<clipPath id="clip0_98_826">
<rect width="38.5323" height="23.1094" fill="white" transform="translate(0.990479 0.0400391)"/>
</clipPath>
</defs>
</svg>
