<svg width="72" height="72" viewBox="0 0 72 72" fill="none" xmlns="http://www.w3.org/2000/svg">
<path d="M0 71.1045V66.1969C0.312724 65.6534 0.777127 65.4792 1.40258 65.4867C3.76018 65.5148 6.11778 65.4979 8.47539 65.4979H9.57275V64.7372C9.57275 58.8983 9.56335 53.0576 9.58583 47.2187C9.60324 46.9926 9.55507 46.7662 9.44712 46.5668C9.33917 46.3674 9.17602 46.2034 8.97723 46.0944C4.95301 43.3961 2.21904 39.7234 0.848293 35.0669C0.473773 33.8245 0.286508 32.5353 0 31.2686V20.6084C0.310851 20.3779 0.587996 20.0687 0.9363 19.9301C4.74517 18.4141 8.56529 16.9319 12.376 15.4197C12.6299 15.3098 12.9036 15.2532 13.1803 15.2532C13.4569 15.2532 13.7306 15.3098 13.9846 15.4197C17.4657 16.8082 20.96 18.1649 24.4468 19.5422C26.4748 20.3423 26.3568 20.1043 26.3475 22.3529C26.3475 24.0038 26.3475 25.6527 26.3475 27.3785C29.1039 26.629 31.778 25.8982 34.4371 25.1412C34.534 25.0864 34.6164 25.0091 34.6773 24.9158C34.7383 24.8226 34.776 24.7161 34.7873 24.6053C34.821 23.5072 34.8042 22.4092 34.8042 21.3111V19.9076C34.2274 19.9076 33.763 19.9076 33.3061 19.9076C32.4147 19.8982 32.0271 19.5328 32.014 18.6334C31.9971 17.3948 31.999 16.1562 32.014 14.9176C32.0252 13.9713 32.4016 13.6059 33.336 13.6059C34.9933 13.6059 36.6505 13.6059 38.3097 13.6059H39.0212C39.0212 12.5472 39.0044 11.5915 39.0212 10.634C39.0399 9.77579 39.4295 9.40662 40.2796 9.39913C41.0156 9.39913 41.7534 9.39913 42.5268 9.39913C42.5268 6.69706 42.5398 4.10366 42.5174 1.51215C42.5174 0.878795 42.6859 0.387883 43.1877 0H48.2438C48.7456 0.374767 48.9198 0.880669 48.9142 1.51215C48.8898 3.80385 48.9048 6.0937 48.9048 8.3854V9.34853H50.9347C50.9347 8.03685 50.9235 6.77389 50.9347 5.5128C50.9459 4.57589 51.3261 4.21424 52.268 4.2105C53.5301 4.2105 54.7904 4.2105 56.0525 4.2105C56.8615 4.2105 57.2491 4.58523 57.2922 5.39473C57.3128 5.79198 57.2922 6.18925 57.2922 6.58838V9.39913H59.3521C60.4288 9.39913 60.7827 9.74392 60.7902 10.812C60.7995 11.7171 60.7902 12.624 60.7902 13.6078H61.6085C63.2658 13.6078 64.9249 13.6078 66.5822 13.6078C67.3312 13.6078 67.76 13.9582 67.7806 14.6815C67.8205 16.0556 67.8205 17.4348 67.7806 18.8189C67.7619 19.5478 67.335 19.8964 66.5972 19.9095C66.0897 19.9188 65.5803 19.9095 65.0373 19.9095V65.5017H65.7638C67.3518 65.5017 68.9473 65.5017 70.5296 65.5017C71.391 65.5017 71.7524 65.8765 71.758 66.7422C71.758 67.9583 71.758 69.1781 71.758 70.3886C71.758 71.4905 71.4453 71.8053 70.3498 71.8053C47.3656 71.8053 24.3812 71.809 1.39695 71.8165C0.784612 71.8147 0.320215 71.6479 0 71.1045ZM62.8051 19.9488H37.0194V65.4436H43.1765V57.7796C42.8619 57.7796 42.5866 57.7796 42.3114 57.7796C41.6091 57.7627 41.1466 57.358 41.1316 56.7546C41.1166 56.1513 41.5942 55.6903 42.3357 55.6847C43.435 55.6847 44.5323 55.6847 45.6296 55.6847C49.5296 55.6847 53.4303 55.6847 57.3315 55.6847C58.1948 55.6847 58.6967 56.0857 58.6817 56.7509C58.6667 57.4161 58.1854 57.774 57.3708 57.7834C57.1255 57.7834 56.8802 57.7834 56.6424 57.7834V65.4548H62.822L62.8051 19.9488ZM2.10105 26.2542H1.98685C2.11418 28.3042 2.05426 30.3767 2.40631 32.3929C3.50178 38.6309 7.02601 43.0738 12.7505 45.7702C12.9968 45.8806 13.2764 45.89 13.5295 45.7965C19.7391 42.8545 23.3794 37.9826 24.0798 31.1356C24.3794 28.1955 24.1902 25.2049 24.2427 22.2386C24.2427 21.8358 24.091 21.6765 23.7371 21.5416C20.3514 20.2299 16.9751 18.8789 13.5857 17.5653C13.309 17.4731 13.0093 17.4777 12.7356 17.5784C9.36487 18.8901 6.01664 20.2205 2.64971 21.5247C2.23587 21.684 2.08793 21.8695 2.08793 22.3211C2.12725 23.6328 2.10667 24.9426 2.10667 26.2524L2.10105 26.2542ZM34.7648 31.5141C34.5307 31.5685 34.3903 31.5965 34.2629 31.6321C31.6582 32.3461 29.0571 33.0788 26.4411 33.7552C26.2412 33.7881 26.0566 33.8827 25.9132 34.0259C25.7698 34.169 25.6748 34.3535 25.6415 34.5535C23.9562 40.5666 20.2597 44.9007 14.6643 47.6478C13.728 48.1069 12.8517 48.3598 11.9041 47.7509C11.8817 47.7359 11.8236 47.7752 11.7749 47.7921V65.4511H17.9545V52.1656C17.344 52.1656 16.7654 52.19 16.1886 52.1656C16.0537 52.1613 15.9211 52.1301 15.7985 52.0738C15.6758 52.0175 15.5656 51.9372 15.4744 51.8377C15.3831 51.7382 15.3127 51.6215 15.2672 51.4944C15.2216 51.3673 15.2019 51.2324 15.2092 51.0975C15.2636 50.5241 15.5744 50.1437 16.1811 50.0838C16.389 50.0632 16.6006 50.0838 16.8103 50.0838H34.7723L34.7648 31.5141ZM20.196 52.205V65.4455H34.7667V52.205H20.196ZM2.131 69.656H69.6101V67.636H2.13662L2.131 69.656ZM65.6121 15.7383H34.218V17.7601H65.6103L65.6121 15.7383ZM58.603 13.574V11.5315H41.229V13.574H58.603ZM45.4349 57.8152V65.4417H48.7887V57.8152H45.4349ZM51.0527 57.8152V65.4661H54.4009V57.8152H51.0527ZM34.8154 27.2717C32.0065 28.0344 29.323 28.7708 26.6415 29.5016C26.5797 29.522 26.5235 29.5565 26.4774 29.6024C26.4312 29.6482 26.3964 29.7042 26.3756 29.7658C26.3194 30.3542 26.2988 30.9445 26.2632 31.6059C29.0609 30.8377 31.7687 30.1068 34.4708 29.3367C34.5543 29.2988 34.6277 29.2417 34.6849 29.1701C34.7422 29.0984 34.7818 29.0143 34.8004 28.9245C34.8304 28.4241 34.806 27.9126 34.806 27.2774L34.8154 27.2717ZM46.6783 9.35228V2.12302H44.6802V9.35228H46.6783ZM55.105 9.35228V6.3504H53.1444V9.37104L55.105 9.35228Z" fill="#87A1B8"/>
<path d="M44.3805 23.4193C45.2438 23.4193 46.1071 23.4193 46.9722 23.4193C47.7437 23.4287 48.1594 23.7941 48.1726 24.568C48.1988 26.3656 48.1988 28.1645 48.1726 29.9646C48.1594 30.7648 47.7362 31.1208 46.9123 31.1245C45.1645 31.1245 43.413 31.1245 41.6578 31.1245C40.8488 31.1245 40.4331 30.7497 40.4219 29.9402C40.3994 28.1663 40.3994 26.3912 40.4219 24.6148C40.4331 23.8016 40.8432 23.4287 41.6484 23.4212C42.5604 23.4118 43.4723 23.4193 44.3805 23.4193ZM42.5941 28.9846H45.9647V25.5742H42.5941V28.9846Z" fill="#87A1B8"/>
<path d="M55.545 23.4192C56.4308 23.4192 57.3184 23.4098 58.206 23.4192C58.94 23.4286 59.3688 23.7939 59.3819 24.5154C59.4156 26.3386 59.4138 28.16 59.3819 29.9832C59.3707 30.7515 58.9457 31.1188 58.1742 31.1225C56.4002 31.1325 54.6262 31.1325 52.8522 31.1225C52.0489 31.1225 51.6444 30.7478 51.6331 29.9195C51.6132 28.1456 51.6132 26.3705 51.6331 24.5941C51.6444 23.7884 52.062 23.4248 52.8766 23.4173C53.7698 23.4136 54.6574 23.4192 55.545 23.4192ZM57.206 25.5535H53.8353V28.9807H57.206V25.5535Z" fill="#87A1B8"/>
<path d="M44.3339 34.6453C45.2215 34.6453 46.1091 34.6453 46.9948 34.6453C47.727 34.6547 48.1559 35.0201 48.169 35.7453C48.2014 37.5679 48.2014 39.3905 48.169 41.2131C48.1577 41.9795 47.7308 42.3374 46.9574 42.3506C45.1834 42.3581 43.4095 42.3581 41.6355 42.3506C40.8621 42.3506 40.4352 41.9758 40.4239 41.2131C40.3965 39.3918 40.3965 37.5697 40.4239 35.7471C40.437 35.0182 40.8658 34.6547 41.5961 34.6453C42.5081 34.6303 43.4238 34.6453 44.3339 34.6453ZM42.6074 40.22H45.978V36.7909H42.6074V40.22Z" fill="#87A1B8"/>
<path d="M55.532 42.3486C54.6462 42.3486 53.7586 42.3486 52.871 42.3486C52.0883 42.3486 51.6557 41.9889 51.6426 41.2243C51.6126 39.403 51.6126 37.581 51.6426 35.7583C51.6538 34.9994 52.0864 34.634 52.8673 34.634C54.6425 34.6265 56.4171 34.6265 58.1911 34.634C58.9607 34.634 59.3764 35.0088 59.3877 35.7865C59.4139 37.5829 59.4139 39.3811 59.3877 41.1812C59.3746 41.9813 58.9514 42.3336 58.1237 42.3393C57.2604 42.3543 56.3971 42.3486 55.532 42.3486ZM57.2024 36.7759H53.8316V40.2012H57.2024V36.7759Z" fill="#87A1B8"/>
<path d="M44.3451 45.8601C45.2083 45.8601 46.0734 45.8601 46.9367 45.8601C47.7232 45.8601 48.1577 46.2161 48.1708 46.9731C48.2032 48.7945 48.2032 50.6165 48.1708 52.4391C48.1595 53.1999 47.7288 53.5634 46.9517 53.5634C45.1765 53.5709 43.4019 53.5709 41.6279 53.5634C40.8545 53.5634 40.4388 53.1887 40.4257 52.4166C40.3995 50.6178 40.3995 48.8189 40.4257 47.02C40.4369 46.2199 40.8583 45.8638 41.6841 45.8582C42.5698 45.8545 43.4574 45.8601 44.3451 45.8601ZM45.9667 51.4385V47.9944H42.6204V51.4385H45.9667Z" fill="#87A1B8"/>
<path d="M55.5562 45.8601C56.4195 45.8601 57.2847 45.8601 58.1479 45.8601C58.9363 45.8601 59.3707 46.2142 59.3839 46.9694C59.4163 48.7908 59.4163 50.6134 59.3839 52.4372C59.3707 53.198 58.94 53.5615 58.1647 53.5615C56.3908 53.569 54.6162 53.569 52.841 53.5615C52.0694 53.5615 51.65 53.1868 51.6388 52.4166C51.6113 50.6178 51.6113 48.8189 51.6388 47.02C51.65 46.2199 52.0713 45.862 52.8953 45.8563C53.781 45.8545 54.6686 45.8601 55.5562 45.8601ZM53.8484 47.9906V51.4347H57.1929V47.9906H53.8484Z" fill="#87A1B8"/>
<path d="M11.7507 30.8415L16.2019 26.3855C17.1045 25.4823 17.5295 25.4786 18.4153 26.3611C19.0913 27.0376 19.7748 27.7103 20.4414 28.3961C21.0781 29.0519 21.0818 29.5617 20.4414 30.2119C18.2692 32.3968 16.0989 34.5835 13.9004 36.744C12.6027 38.0201 10.981 37.9864 9.67958 36.7009C8.43118 35.4717 7.1928 34.2343 5.96437 32.9889C5.26215 32.2806 5.26214 31.7784 5.955 31.0738C6.64786 30.3693 7.36879 29.6497 8.086 28.947C8.8032 28.2444 9.27701 28.2631 9.9474 28.9377C10.5485 29.5448 11.1252 30.1819 11.7507 30.8415ZM7.99049 32.037C9.03915 33.0788 10.0504 34.0813 11.0541 35.0801C11.6608 35.6816 11.9567 35.6816 12.5746 35.067C14.3761 33.2681 16.175 31.4673 17.9715 29.6647C18.0801 29.5541 18.1718 29.4248 18.2486 29.3311L17.3273 28.2893L13.0803 32.5392C11.9567 33.6635 11.6702 33.6747 10.526 32.513C10.041 32.0183 9.58971 31.4973 9.08786 30.9614L7.99049 32.037Z" fill="#87A1B8"/>
<path d="M27.4094 63.3877C26.4731 63.3877 25.5367 63.3971 24.6136 63.3877C23.9263 63.3877 23.4563 62.9399 23.4563 62.3403C23.4563 61.7407 23.9263 61.3003 24.6136 61.2966C26.5236 61.2866 28.4343 61.2866 30.3456 61.2966C31.0328 61.2966 31.5029 61.7444 31.5029 62.3422C31.5029 62.9399 31.031 63.3802 30.3437 63.3877C29.3662 63.3971 28.3869 63.3877 27.4094 63.3877Z" fill="#87A1B8"/>
</svg>
