<svg width="64" height="56" viewBox="0 0 64 56" fill="none" xmlns="http://www.w3.org/2000/svg">
<path d="M0 4.49157C0.123029 4.0538 0.272513 3.62388 0.447577 3.20423C1.47751 1.06056 3.1984 0 5.57286 0H54.5151C55.8466 0 57.178 0 58.5094 0C61.5973 0.0168645 63.9231 2.3329 63.925 5.41161C63.925 18.1537 63.925 30.8989 63.925 43.6472C63.925 46.7184 61.6085 49.0551 58.5187 49.0813C55.2735 49.1038 52.0264 49.0813 48.7812 49.0813H47.9442V49.7709C47.9442 51.2699 47.9442 52.769 47.9442 54.2681C47.9442 54.7815 47.7569 55.1544 47.2888 55.368C46.8206 55.5816 46.3955 55.4223 46.0435 55.0738C45.0698 54.105 44.096 53.1344 43.1353 52.1525C42.9786 51.9534 42.8407 51.7401 42.7234 51.5154C41.4687 52.7746 40.3826 53.8914 39.2628 54.9745C39.0155 55.2167 38.7009 55.3786 38.3602 55.4392C37.7142 55.516 37.291 55.0026 37.2816 54.2044C37.2685 52.7465 37.2816 51.2887 37.2816 49.8308V49.0813H5.90244C2.76958 49.0813 0.949435 47.7097 0.0749314 44.6965C0.0636958 44.6591 0.0243438 44.631 0 44.5991V4.49157ZM37.2816 46.9095V46.1112C37.2816 42.03 37.319 37.947 37.2647 33.8658C37.2366 31.8926 37.5924 29.8895 36.8565 27.9463C36.6786 27.476 36.5307 27.2081 36.0195 27.1256C34.3173 26.8483 33.3379 25.4054 33.7574 23.7527C33.8922 23.2262 33.7742 22.9638 33.3192 22.694C31.8604 21.8245 31.514 20.08 32.5308 18.7102C32.8454 18.2867 32.8548 17.9925 32.5308 17.5616C31.5084 16.1937 31.8567 14.4547 33.3154 13.5797C33.763 13.3117 33.8922 13.0493 33.7574 12.519C33.6487 12.1422 33.6246 11.746 33.6868 11.3587C33.7489 10.9714 33.8958 10.6027 34.117 10.2788C34.3381 9.95496 34.628 9.68399 34.966 9.48527C35.3039 9.28656 35.6816 9.165 36.0719 9.12931C36.5607 9.06935 36.7517 8.83324 36.8209 8.37978C37.1037 6.59963 38.4913 5.67021 40.2591 6.08245C40.7047 6.18552 40.9837 6.08246 41.2328 5.66834C42.1335 4.15054 43.8413 3.79448 45.2402 4.84008C45.6708 5.16238 45.9742 5.1418 46.3955 4.82887C47.7625 3.80951 49.4928 4.158 50.3674 5.63083C50.6239 6.06556 50.8992 6.193 51.3804 6.07495C53.1163 5.65334 54.5638 6.63708 54.8035 8.39849C54.8635 8.82947 55.0507 9.05809 55.5058 9.11993C57.3053 9.36353 58.266 10.7951 57.8428 12.5903C57.7435 13.0119 57.8259 13.2817 58.2173 13.5272C59.7959 14.4847 60.1292 16.1505 59.0412 17.6309C58.7734 17.9963 58.7641 18.2624 59.0281 18.6278C60.1199 20.1399 59.8015 21.7795 58.2285 22.7314C57.8428 22.9657 57.7341 23.228 57.8353 23.6571C58.2585 25.486 57.3877 26.7752 55.5207 27.1556C55.2998 27.2005 54.9739 27.343 54.9215 27.5004C54.6799 28.2612 54.3597 29.0444 54.3597 29.822C54.3073 34.3605 54.3316 38.9007 54.3391 43.441C54.3391 44.0032 54.238 44.4829 53.6631 44.719C53.0882 44.9551 52.6744 44.6647 52.2868 44.2693C51.21 43.1731 50.1202 42.0863 49.0584 41.0182C48.1895 41.5653 47.7813 42.2643 47.9255 43.2799C48.006 43.8308 47.9404 44.4042 47.9404 44.9664V46.8758C51.6856 46.8758 55.3185 46.9207 58.9569 46.8552C60.6217 46.8252 61.794 45.3561 61.794 43.501C61.794 30.8601 61.794 18.2187 61.794 5.57653C61.794 3.48721 60.4494 2.14178 58.3502 2.1399C40.7478 2.1399 23.1453 2.1399 5.54291 2.1399C4.66092 2.1399 3.85756 2.3685 3.19279 2.9775C2.38196 3.72703 2.12355 4.66394 2.12542 5.73578C2.12542 18.2324 2.14975 30.7271 2.10855 43.2218C2.10855 45.2699 3.3426 46.9433 5.81068 46.9301C16.0276 46.8758 26.2445 46.9076 36.4614 46.9076L37.2816 46.9095ZM35.8228 24.3486C35.8228 24.7871 35.9521 24.922 36.4408 25.01C37.9389 25.2817 38.6992 26.0407 38.937 27.5491C39.0138 28.0363 39.274 28.2199 39.7085 28.1112C41.2234 27.7365 42.3526 28.1937 43.1204 29.5672C43.3076 29.9176 43.6428 29.9682 43.9686 29.7115C45.2046 28.7427 46.4311 28.7464 47.6652 29.7115C47.991 29.9663 48.3168 29.8989 48.5135 29.5578C49.2831 28.1862 50.4123 27.7215 51.9272 28.1075C52.3317 28.2124 52.607 28.0475 52.695 27.6034C53.0283 25.9169 53.6125 25.3155 55.2548 25.0082C55.7379 24.9163 55.8765 24.6615 55.7866 24.2118C55.4533 22.5759 55.7698 21.7927 57.1555 20.8839C57.5525 20.6234 57.6405 20.3217 57.3559 19.9469C56.4402 18.7496 56.4196 17.5503 57.3334 16.3454C57.6405 15.9388 57.5525 15.6334 57.1368 15.3617C55.796 14.4829 55.4308 13.6115 55.7773 12.0862C55.8971 11.5522 55.6874 11.3067 55.1724 11.228C53.723 11.0088 52.9085 10.1974 52.7006 8.76017C52.6257 8.24487 52.3935 8.03684 51.8523 8.16801C50.401 8.52029 49.3861 8.10055 48.6033 6.85633C48.2775 6.3429 48.0416 6.2942 47.5472 6.64273C46.3544 7.47658 45.2608 7.47846 44.0904 6.64273C43.5848 6.2867 43.3582 6.32792 43.0323 6.83011C42.2533 8.05185 41.2066 8.49406 39.8489 8.17364C39.2085 8.02186 39.0494 8.13242 38.9426 8.79201C38.7235 10.1393 37.8471 11.0163 36.5326 11.2018C35.8884 11.2917 35.7442 11.4978 35.8865 12.1218C36.1992 13.4991 35.7723 14.5578 34.615 15.2848C34.0046 15.6596 33.9709 15.8357 34.3847 16.4091C35.1731 17.5147 35.1806 18.6578 34.4034 19.7671C33.9671 20.3854 33.999 20.5391 34.6413 20.9401C35.1613 21.2368 35.5682 21.6979 35.798 22.2511C36.0278 22.8042 36.0674 23.4181 35.9108 23.9963C35.8828 24.1574 35.8416 24.2755 35.8228 24.3486ZM45.8038 44.2412C45.3038 44.6965 44.8507 44.9814 44.2739 44.689C43.6559 44.3761 43.684 43.8046 43.684 43.2293C43.684 39.7315 43.684 36.2337 43.684 32.7359V32.0257C42.4706 31.9751 41.641 31.4186 41.083 30.4048C40.9968 30.2474 40.671 30.1443 40.4594 30.15C40.1262 30.1864 39.7975 30.2561 39.4782 30.358V51.7628C40.2815 50.9551 40.9894 50.2355 41.7085 49.5235C42.3358 48.9014 42.9013 48.9051 43.5417 49.5235C43.9593 49.9301 44.3657 50.348 44.7795 50.7584C45.0922 51.0675 45.4106 51.3711 45.8001 51.7496L45.8038 44.2412ZM45.8562 41.1044L47.4854 39.4723C48.9554 37.9994 49.064 37.9995 50.5452 39.4817L52.165 41.1044V30.3523C52.0542 30.3364 51.9447 30.3126 51.8373 30.2811C51.1014 30.0094 50.6295 30.1668 50.1688 30.8995C49.3861 32.1437 47.697 32.3573 46.4742 31.516C46.2963 31.3923 46.1147 31.2724 45.8562 31.1V41.1044Z" fill="#87A1B8"/>
<path d="M8.52594 24.5777C8.52594 28.0349 8.52594 31.4922 8.52594 34.9475C8.52594 36.6921 9.46226 37.9456 11.0259 38.3017C11.3737 38.3634 11.7272 38.3866 12.0801 38.371C18.4882 38.371 24.8962 38.371 31.3043 38.371C31.4915 38.371 31.6788 38.371 31.866 38.371C32.5495 38.4047 33.0196 38.8319 33.0402 39.426C33.0608 40.02 32.6039 40.4715 31.9166 40.5371C31.793 40.5484 31.6676 40.5371 31.5421 40.5371C25.0504 40.5371 18.5587 40.5371 12.0671 40.5371C10.1345 40.5371 8.53345 39.8719 7.37431 38.2885C6.69848 37.3545 6.34427 36.226 6.365 35.073C6.365 28.0349 6.365 20.9962 6.365 13.9568C6.365 10.9587 8.584 8.55832 11.5783 8.52272C17.9638 8.45526 24.3532 8.49459 30.7406 8.50209C31.4765 8.50209 31.9372 8.94243 31.9447 9.57391C31.9522 10.2054 31.5121 10.6533 30.7687 10.672C29.7088 10.6982 28.647 10.6814 27.5853 10.6814C22.4674 10.6814 17.3478 10.7413 12.2299 10.6532C9.86298 10.612 8.44168 12.1523 8.48475 14.3784C8.58025 17.7907 8.52594 21.1861 8.52594 24.5777Z" fill="#87A1B8"/>
<path d="M21.3795 34.578C19.7559 35.6629 18.6586 35.4587 16.638 33.641C15.8066 34.8347 14.6568 35.6198 13.3179 36.1351C12.4041 36.4855 11.5857 35.9477 11.7636 35.0595C11.8292 34.7335 12.1569 34.4056 12.449 34.1901C12.8423 33.8996 13.3292 33.7347 13.7599 33.4799C14.1871 33.2377 14.5441 32.8887 14.7959 32.4669C15.0477 32.0451 15.1856 31.5651 15.1961 31.0739C15.2429 30.3243 15.5613 29.9252 16.1324 29.8709C16.8066 29.8053 17.1455 30.2007 17.3702 30.7816C17.6894 31.6227 18.2713 32.3383 19.0293 32.8222C19.6548 33.225 19.872 33.1276 20.0218 32.4062C20.1211 31.9208 20.3664 31.5611 20.8888 31.4693C21.1247 31.4093 21.3743 31.4367 21.5915 31.5466C21.8088 31.6565 21.9789 31.8413 22.0704 32.067C22.312 32.5992 22.7427 32.8409 23.2596 32.9777C25.046 33.4555 26.8381 33.894 28.7107 33.8621C28.8565 33.8514 29.003 33.8713 29.1407 33.9206C29.2784 33.97 29.4042 34.0476 29.5101 34.1486C29.616 34.2496 29.6995 34.3716 29.7553 34.5069C29.8112 34.6422 29.838 34.7877 29.8342 34.934C29.8342 35.5486 29.3792 35.9646 28.6845 35.9796C26.1546 36.0414 23.7502 35.4662 21.3795 34.578Z" fill="#87A1B8"/>
<path d="M20.1996 17.0952C17.8102 17.0952 15.4189 17.0952 13.0276 17.0952C12.2261 17.0952 11.7524 16.7073 11.7336 16.059C11.7168 15.4799 11.9958 15.1052 12.5576 14.9778C12.8045 14.932 13.0557 14.9137 13.3066 14.9234C17.9432 14.9234 22.5791 14.9234 27.2144 14.9234C27.3399 14.9234 27.4635 14.9234 27.5889 14.9234C28.3248 14.9703 28.7799 15.3938 28.7724 16.0215C28.7649 16.6492 28.2968 17.0858 27.5646 17.0933C26.1096 17.1064 24.6546 17.0933 23.1996 17.0933L20.1996 17.0952Z" fill="#87A1B8"/>
<path d="M20.2596 25.6061C17.8477 25.6061 15.4358 25.6061 13.0239 25.6061C12.1756 25.6061 11.7243 25.2201 11.7318 24.5212C11.7393 23.8222 12.1662 23.4756 12.992 23.4756C17.8358 23.4756 22.6796 23.4756 27.5234 23.4756C28.3062 23.4756 28.7799 23.9009 28.7687 24.553C28.7575 25.2051 28.2837 25.6042 27.4934 25.6061C25.0815 25.6099 22.6703 25.6099 20.2596 25.6061Z" fill="#87A1B8"/>
<path d="M20.2952 19.2012H27.2238C27.4523 19.2012 27.7351 19.1375 27.8961 19.2461C28.2145 19.4598 28.5684 19.7258 28.7163 20.0575C28.9036 20.4885 28.6882 20.927 28.265 21.1668C28.0466 21.2833 27.8028 21.3438 27.5553 21.343C22.6865 21.3529 17.8222 21.3529 12.9621 21.343C12.2955 21.343 11.8498 21.0169 11.7505 20.4922C11.612 19.7671 12.0726 19.2143 12.8741 19.2012C14.2467 19.1806 15.6174 19.2012 16.9938 19.2012H20.2952Z" fill="#87A1B8"/>
<path d="M37.2853 18.1107C37.2862 16.9856 37.5101 15.8718 37.9441 14.8339C38.3781 13.796 39.0136 12.8545 39.8137 12.064C40.6137 11.2735 41.5626 10.6496 42.6053 10.2285C43.6479 9.80749 44.7637 9.59757 45.888 9.61095C47.0068 9.61558 48.1137 9.84171 49.1448 10.2763C50.1759 10.7108 51.1109 11.3452 51.8959 12.143C52.681 12.9407 53.3005 13.886 53.7188 14.9243C54.1371 15.9627 54.346 17.0736 54.3334 18.1931C54.2979 22.9096 50.4366 26.7434 45.7757 26.691C43.5157 26.6702 41.3554 25.7569 39.7652 24.1499C38.1751 22.5428 37.2837 20.3722 37.2853 18.1107ZM45.8037 24.5061C46.642 24.5095 47.4728 24.3473 48.2483 24.0287C49.0238 23.71 49.7288 23.2413 50.3228 22.6493C50.9167 22.0574 51.388 21.3539 51.7096 20.5792C52.0312 19.8045 52.1968 18.9739 52.1968 18.1351C52.1891 16.4507 51.5203 14.8368 50.3346 13.6412C49.1489 12.4456 47.5412 11.764 45.858 11.7434C44.1644 11.7409 42.5386 12.4098 41.3367 13.6038C40.1347 14.7978 39.4543 16.4197 39.4444 18.1144C39.4377 18.9536 39.5975 19.7858 39.9146 20.5627C40.2317 21.3396 40.6998 22.0458 41.2917 22.6403C41.8835 23.2349 42.5875 23.7059 43.3627 24.0262C44.1379 24.3465 44.9688 24.5096 45.8075 24.5061H45.8037Z" fill="#87A1B8"/>
</svg>
