<svg width="25" height="22" viewBox="0 0 25 22" fill="none" xmlns="http://www.w3.org/2000/svg">
<g clip-path="url(#clip0_238_483)">
<path d="M24.9637 6.30296C24.8586 5.28646 24.5305 4.30525 24.0024 3.42848C23.4744 2.55172 22.7592 1.80075 21.9074 1.22853C19.3932 -0.458489 15.5162 -0.701114 12.4887 2.53345C12.4483 2.49715 12.4157 2.46849 12.3849 2.43601C11.7312 1.70812 10.9374 1.11786 10.0502 0.700118C9.16312 0.282378 8.20073 0.0456414 7.21999 0.00388168C6.30736 -0.0237849 5.39847 0.131072 4.54722 0.45927C3.69597 0.787469 2.91971 1.28232 2.26458 1.91443C1.57091 2.55189 1.01333 3.3215 0.624989 4.1775C0.236651 5.0335 0.025488 5.95839 0.00407852 6.89714C0.000468425 7.85838 0.191602 8.81051 0.566094 9.69676C0.940586 10.583 1.49079 11.3852 2.18386 12.0556C3.91383 13.7923 5.68799 15.5443 7.40258 17.239L7.4276 17.2638C8.75775 18.5783 10.2647 20.0666 11.7045 21.5033C12.0063 21.8052 12.2811 22.0058 12.5964 22.0058C12.8539 22.0058 13.1057 21.8701 13.3883 21.5816C14.8107 20.1315 16.2716 18.668 17.6786 17.2542C19.4567 15.4679 21.2962 13.6242 23.0915 11.7748C23.7874 11.0544 24.3157 10.1911 24.6392 9.24559C24.9627 8.30013 25.0735 7.29563 24.9637 6.30296ZM22.3111 10.6342C20.0756 12.9956 17.7305 15.3303 15.4623 17.5886C14.5012 18.5439 13.5575 19.4838 12.6194 20.4296C12.5953 20.4427 12.5702 20.4542 12.5445 20.464L12.4753 20.4926L11.5891 19.5851C10.8549 18.8209 10.0956 18.0567 9.33057 17.2925C8.34769 16.3104 7.36225 15.3329 6.37424 14.3598C5.31704 13.3128 4.22138 12.2314 3.14111 11.15C1.43228 9.44009 0.922921 7.47414 1.62644 5.30949C2.3415 3.10853 3.93303 1.75968 6.24927 1.41004C6.56739 1.362 6.8886 1.33709 7.21037 1.33553C8.90958 1.33553 10.3781 2.08064 11.5757 3.54794L11.6429 3.62819C12.0562 4.1364 12.2446 4.37139 12.5233 4.36184C12.802 4.35228 13.0039 4.10391 13.4364 3.54603C13.9048 2.93867 14.4926 2.43239 15.1641 2.05796C15.8355 1.68353 16.5766 1.44879 17.3422 1.36802C18.0878 1.28006 18.8437 1.34377 19.5637 1.5553C20.2838 1.76682 20.953 2.12171 21.5307 2.5984C22.1583 3.11151 22.6742 3.74624 23.0469 4.46394C23.4197 5.18164 23.6416 5.96727 23.6989 6.77295C23.7474 7.47699 23.6489 8.18339 23.4098 8.84783C23.1706 9.51228 22.7959 10.1205 22.3092 10.6342H22.3111Z" fill="#101820"/>
</g>
<defs>
<clipPath id="clip0_238_483">
<rect width="25" height="22" fill="white"/>
</clipPath>
</defs>
</svg>
