<svg width="60" height="55" viewBox="0 0 60 55" fill="none" xmlns="http://www.w3.org/2000/svg">
<path d="M21.7351 46.0455C22.0253 46.2121 22.368 46.3505 22.6002 46.5722C23.4372 47.3672 23.469 48.4822 22.6376 49.2789C21.0971 50.7589 19.5323 52.2179 17.943 53.6557C17.0067 54.5007 15.6959 54.489 14.7465 53.6557C10.07 49.5856 5.40285 45.5071 0.745068 41.4203C-0.253027 40.5453 -0.247398 39.357 0.756315 38.4836C2.42418 37.028 4.10952 35.5908 5.81233 34.1718C6.74863 33.3818 8.00886 33.4068 8.96201 34.2019C9.18127 34.4085 9.38638 34.6267 9.57623 34.8552C10.814 33.8318 11.9264 32.8885 13.0705 31.9768C13.9539 31.2369 14.8829 30.5414 15.8532 29.8934C17.2296 29.0267 18.8306 28.6334 20.5347 28.47V15.4414L17.3943 18.2515C17.2195 18.4187 17.0352 18.5778 16.8419 18.7281C16.6243 18.9052 16.3372 18.9989 16.0426 18.9893C15.748 18.9796 15.4695 18.8673 15.2671 18.6765C15.0699 18.4952 14.9588 18.2533 14.9567 18.001C14.9546 17.7486 15.0617 17.5053 15.2558 17.3215C15.5761 16.9881 15.9393 16.6948 16.2858 16.3864L19.9036 13.1663C21.2931 11.9296 22.6957 10.7046 24.0571 9.4446C24.2852 9.20476 24.41 8.90047 24.4091 8.58622C24.381 7.21619 24.2761 5.84617 24.2218 4.47447C24.1937 3.71779 24.5964 3.29278 25.2911 3.27278C25.9859 3.25278 26.4147 3.65279 26.4615 4.39948C26.5177 5.27116 26.572 6.14117 26.6375 7.12952C26.8697 6.93952 27.0495 6.79621 27.2161 6.65454C29.4969 4.62782 31.7771 2.59944 34.0567 0.569389C34.9088 -0.188963 35.3863 -0.190629 36.2383 0.569389L54.7246 17.0214C54.7902 17.0814 54.8576 17.1381 54.9119 17.1998C55.4269 17.6998 55.4606 18.2815 54.998 18.6998C54.5355 19.1182 53.8614 19.1031 53.3127 18.6315C52.1142 17.5814 50.9326 16.5164 49.7416 15.4647C49.5825 15.3247 49.4158 15.1947 49.1798 15.0014V26.585C49.7585 26.1416 50.2791 25.6666 50.8821 25.2983C52.0547 24.6031 53.4406 24.2484 54.849 24.283C56.2575 24.3176 57.6192 24.7399 58.747 25.4917C59.6833 26.1267 59.9623 27.19 59.3387 28.105C56.2676 32.6051 53.0093 36.9869 48.5956 40.5786C47.5095 41.462 46.459 42.3804 45.3635 43.2454C43.6441 44.6558 41.3892 45.4357 39.051 45.4288C34.0043 45.4521 28.9595 45.4288 23.9129 45.4488C23.235 45.4488 22.559 45.6271 21.883 45.7221C21.853 45.8305 21.7931 45.9321 21.7351 46.0455ZM35.184 2.46942C35.0473 2.56942 34.9724 2.61608 34.9088 2.67275C30.9763 6.1695 27.0501 9.66959 23.1301 13.173C22.9226 13.4107 22.8152 13.7055 22.8267 14.0064C22.8105 18.5998 22.8061 23.1927 22.8136 27.785V28.46C25.0402 28.5784 27.2705 28.1001 29.2666 29.4067V28.5984C29.2666 25.9161 29.2666 23.2349 29.2666 20.5549C29.2666 19.5548 29.6075 19.2432 30.7104 19.2432H38.1353C39.3 19.2432 39.6333 19.5399 39.6333 20.5765C39.6333 23.7783 39.6333 26.9783 39.6446 30.1784C39.6446 30.3901 39.7326 30.7118 39.8993 30.7951C40.6745 31.1834 41.491 31.5084 42.3617 31.8868C43.6725 31.0884 45.1126 30.2367 46.5114 29.3367C46.6322 29.241 46.7298 29.1244 46.7984 28.994C46.8669 28.8637 46.905 28.7222 46.9103 28.5784C46.9327 23.5282 46.9327 18.4776 46.9103 13.4263C46.8887 13.1104 46.7428 12.8112 46.4983 12.5813C44.2737 10.5646 42.019 8.57122 39.7757 6.58117L35.184 2.46942ZM43.2362 33.8035C43.2362 33.8835 43.2568 33.9702 43.2625 34.0468C43.4628 36.6919 41.6052 38.4569 38.6221 38.4586H29.0906C28.0681 38.4586 27.5794 38.1253 27.5925 37.4453C27.6056 36.7653 28.0813 36.4669 29.0606 36.4669C32.2628 36.4669 35.4637 36.4669 38.6633 36.4669C40.0603 36.4669 41.0528 35.6702 41.0434 34.5835C41.034 33.4968 40.0472 32.7251 38.6371 32.7218C36.6971 32.7218 34.7571 32.6785 32.819 32.7335C31.9906 32.7736 31.1617 32.6658 30.3808 32.4165C29.6 32.1672 28.8831 31.7814 28.2723 31.2818C27.6257 30.7574 26.78 30.4703 25.9053 30.4784C24.3641 30.4784 22.8211 30.4601 21.28 30.4784C19.7819 30.5001 18.2932 30.7551 17.1266 31.5951C15.1004 33.0535 13.1941 34.6435 11.1923 36.2136L20.2444 44.4104C21.5552 43.5321 23.0103 43.4304 24.5346 43.4404C29.2292 43.4687 33.9257 43.4521 38.6203 43.4404C40.5266 43.4404 42.2793 42.9987 43.7269 41.862C47.8035 38.6603 51.6199 35.2502 54.5355 31.1218C55.4718 29.7884 56.4399 28.475 57.4905 27.0167C56.7058 26.765 56.0579 26.455 55.3725 26.3583C53.558 26.1017 52.0843 26.675 50.9663 27.9884C50.2791 28.7984 49.6836 29.7301 48.8109 30.3417C47.0526 31.5801 45.1388 32.6335 43.2325 33.7968L43.2362 33.8035ZM7.37968 35.6369L2.30121 39.9703L16.3457 52.2456L20.9504 47.9505L7.37968 35.6369ZM37.3656 30.6267V21.2649H31.4969V21.9716C31.4969 24.3383 31.5063 26.705 31.4969 29.0717C31.4969 29.5551 31.3939 30.0368 31.3265 30.6134L37.3656 30.6267Z" fill="#87A1B8"/>
</svg>
