<svg width="117" height="57" viewBox="0 0 117 57" fill="none" xmlns="http://www.w3.org/2000/svg">
<path d="M69.7864 25.9628V16.7871H73.5421C74.5258 16.7871 75.3886 16.9815 76.1321 17.3702C76.874 17.7589 77.4519 18.2991 77.8659 18.9892C78.2783 19.6793 78.4853 20.4749 78.4853 21.3758C78.4853 22.2767 78.2783 23.0706 77.8659 23.7607C77.4536 24.4508 76.8756 24.9911 76.1321 25.3798C75.3902 25.7685 74.5258 25.9628 73.5421 25.9628H69.7864ZM70.7617 25.1245H73.4892C74.3056 25.1245 75.016 24.9647 75.6171 24.6468C76.2182 24.3273 76.6869 23.8859 77.0214 23.3226C77.3559 22.7593 77.5215 22.1104 77.5215 21.3758C77.5215 20.633 77.3542 19.9824 77.0214 19.4224C76.6869 18.8624 76.2199 18.4243 75.6171 18.1048C75.0143 17.7852 74.3056 17.6271 73.4892 17.6271H70.7617V25.1245Z" fill="white"/>
<path d="M84.3905 26.0419C83.2131 26.0419 82.2857 25.7059 81.6101 25.0323C80.9328 24.3586 80.595 23.3638 80.595 22.0429V16.7871H81.5703V22.005C81.5703 23.0887 81.8154 23.8876 82.3089 24.4031C82.8007 24.9186 83.4946 25.1772 84.3905 25.1772C85.2947 25.1772 85.9935 24.9203 86.4853 24.4031C86.9771 23.8876 87.2239 23.0871 87.2239 22.005V16.7871H88.1727V22.0429C88.1727 23.3621 87.8366 24.3586 87.1643 25.0323C86.4919 25.7043 85.5662 26.0419 84.3905 26.0419Z" fill="white"/>
<path d="M91.1105 25.9628V16.7871H95.0915C96.1198 16.7871 96.9163 16.993 97.4827 17.4031C98.049 17.8132 98.3322 18.3946 98.3322 19.1457C98.3322 19.6431 98.2163 20.0631 97.9828 20.404C97.7493 20.745 97.433 21.0019 97.0339 21.1782C96.6332 21.3527 96.1977 21.44 95.7224 21.44L95.9459 21.1254C96.5338 21.1254 97.0422 21.2144 97.4678 21.3939C97.8934 21.5734 98.2262 21.8403 98.463 22.1927C98.6998 22.5452 98.8191 22.985 98.8191 23.5104C98.8191 24.2878 98.5309 24.8906 97.9563 25.3188C97.38 25.7471 96.5139 25.9612 95.3531 25.9612H91.1105V25.9628ZM92.0858 25.1624H95.3415C96.1496 25.1624 96.769 25.024 97.1995 24.749C97.6301 24.4739 97.8454 24.0341 97.8454 23.4313C97.8454 22.8367 97.6301 22.4019 97.1995 22.1269C96.769 21.8518 96.1496 21.7134 95.3415 21.7134H91.9815V20.9146H95.0252C95.7638 20.9146 96.3368 20.7746 96.7458 20.4946C97.1548 20.2146 97.3585 19.7996 97.3585 19.2495C97.3585 18.6911 97.1548 18.2727 96.7458 17.9977C96.3368 17.7226 95.7638 17.5843 95.0252 17.5843H92.0858V25.1624Z" fill="white"/>
<path d="M99.5725 25.9628L103.79 16.7871H104.752L108.97 25.9628H107.942L104.067 17.3504H104.463L100.588 25.9628H99.5725ZM101.233 23.512L101.523 22.7247H106.887L107.177 23.512H101.233Z" fill="white"/>
<path d="M110.499 25.9628V16.7871H111.474V25.9628H110.499Z" fill="white"/>
<path d="M69.7947 39.3764V30.2007H70.7701V39.3764H69.7947Z" fill="white"/>
<path d="M73.774 39.3764V30.2007H74.5772L80.9428 38.1708H80.5205V30.2007H81.4827V39.3764H80.6795L74.3271 31.4063H74.7494V39.3764H73.774Z" fill="white"/>
<path d="M87.0069 39.3764L82.9216 30.2007H83.9765L87.7985 38.8395H87.2189L91.0674 30.2007H92.056L87.9707 39.3764H87.0069Z" fill="white"/>
<path d="M94.3612 38.5381H99.9104V39.3764H93.3859V30.2007H99.7117V31.039H94.3612V38.5381ZM94.2553 34.3035H99.1321V35.1287H94.2553V34.3035Z" fill="white"/>
<path d="M104.746 39.4556C104.06 39.4556 103.403 39.3436 102.775 39.1212C102.148 38.8989 101.661 38.6123 101.32 38.2631L101.702 37.5153C102.027 37.8299 102.464 38.0951 103.014 38.3092C103.562 38.5233 104.14 38.6304 104.747 38.6304C105.327 38.6304 105.799 38.5579 106.165 38.4146C106.529 38.2697 106.798 38.0753 106.968 37.8316C107.139 37.5878 107.225 37.316 107.225 37.0196C107.225 36.6622 107.122 36.3723 106.915 36.1549C106.708 35.9358 106.438 35.7645 106.105 35.6377C105.771 35.5109 105.402 35.4005 104.998 35.3033C104.593 35.2078 104.189 35.104 103.785 34.9953C103.381 34.8866 103.01 34.74 102.671 34.5556C102.333 34.3727 102.06 34.129 101.854 33.8276C101.647 33.5262 101.545 33.1309 101.545 32.6417C101.545 32.1871 101.666 31.7704 101.907 31.3899C102.149 31.0095 102.52 30.7048 103.022 30.4725C103.522 30.2403 104.165 30.125 104.946 30.125C105.465 30.125 105.978 30.1975 106.488 30.3408C106.998 30.4857 107.437 30.6834 107.806 30.937L107.477 31.7111C107.081 31.4492 106.662 31.2565 106.218 31.1346C105.774 31.0128 105.345 30.9518 104.933 30.9518C104.38 30.9518 103.923 31.0259 103.562 31.1742C103.201 31.3224 102.936 31.5217 102.765 31.7704C102.595 32.0191 102.509 32.3008 102.509 32.6153C102.509 32.9744 102.611 33.2626 102.818 33.48C103.025 33.6991 103.297 33.8688 103.635 33.9906C103.972 34.1125 104.343 34.2229 104.749 34.3184C105.153 34.4139 105.556 34.5193 105.955 34.633C106.354 34.7466 106.723 34.8932 107.063 35.0727C107.4 35.2523 107.674 35.4895 107.879 35.7876C108.086 36.084 108.189 36.4744 108.189 36.9537C108.189 37.4 108.066 37.8118 107.819 38.1923C107.573 38.5727 107.198 38.8791 106.693 39.1097C106.185 39.3403 105.537 39.4556 104.746 39.4556Z" fill="white"/>
<path d="M111.969 39.3764V31.039H108.727V30.2007H116.187V31.039H112.945V39.3764H111.969Z" fill="white"/>
<path d="M70.7652 52.0639H76.3144V52.9023H69.7898V43.7266H76.1157V44.5649H70.7652V52.0639ZM70.6592 47.831H75.5361V48.6562H70.6592V47.831Z" fill="white"/>
<path d="M81.1499 52.9811C80.4643 52.9811 79.8069 52.8691 79.1792 52.6468C78.5516 52.4244 78.0648 52.1378 77.7236 51.7887L78.1062 51.0409C78.4307 51.3555 78.8679 51.6207 79.4177 51.8331C79.9658 52.0472 80.5438 52.1543 81.1515 52.1543C81.7311 52.1543 82.2031 52.0818 82.569 51.9385C82.9334 51.7936 83.2016 51.5993 83.3722 51.3555C83.5428 51.1117 83.6289 50.84 83.6289 50.5435C83.6289 50.1844 83.5262 49.8962 83.3192 49.6788C83.1122 49.4597 82.8423 49.2884 82.5094 49.1616C82.1749 49.0348 81.8056 48.9228 81.4016 48.8273C80.9975 48.7317 80.5935 48.628 80.1894 48.5193C79.7853 48.4106 79.4144 48.264 79.0749 48.0795C78.7371 47.8967 78.4639 47.6529 78.2585 47.3515C78.0515 47.0501 77.9488 46.6548 77.9488 46.1656C77.9488 45.711 78.0697 45.2943 78.3115 44.9139C78.5533 44.5334 78.9242 44.2287 79.426 43.9965C79.9261 43.7642 80.5686 43.6489 81.3502 43.6489C81.8686 43.6489 82.3819 43.7214 82.892 43.8647C83.402 44.0096 83.8408 44.2073 84.2101 44.4609L83.8806 45.235C83.4848 44.9732 83.0658 44.7805 82.622 44.6586C82.1782 44.5367 81.7493 44.4757 81.337 44.4757C80.7839 44.4757 80.3268 44.5499 79.9658 44.6981C79.6048 44.8463 79.3399 45.0456 79.1693 45.2943C78.9987 45.543 78.9126 45.8247 78.9126 46.1393C78.9126 46.4983 79.0153 46.7866 79.2223 47.004C79.4293 47.223 79.7009 47.3927 80.0387 47.5146C80.3765 47.6364 80.7475 47.7468 81.1532 47.8423C81.5572 47.9379 81.9596 48.0433 82.3587 48.1569C82.7578 48.2706 83.1271 48.4171 83.4666 48.5967C83.8044 48.7762 84.0776 49.0134 84.283 49.3115C84.49 49.608 84.5926 49.9983 84.5926 50.4776C84.5926 50.924 84.4701 51.3357 84.2234 51.7162C83.9766 52.0967 83.6024 52.403 83.0973 52.6336C82.5889 52.8658 81.9414 52.9811 81.1499 52.9811Z" fill="white"/>
<path d="M88.3716 52.9038V44.5664H85.1292V43.728H92.5894V44.5664H89.3469V52.9038H88.3716Z" fill="white"/>
<path d="M92.2069 52.9038L96.4247 43.728H97.3868L101.605 52.9038H100.576L96.7012 44.2913H97.097L93.222 52.9038H92.2069ZM93.8679 50.4513L94.1577 49.664H99.5214L99.8112 50.4513H93.8679Z" fill="white"/>
<path d="M104.464 52.9038V44.5664H101.222V43.728H108.682V44.5664H105.44V52.9038H104.464Z" fill="white"/>
<path d="M111.213 52.0639H116.762V52.9023H110.237V43.7266H116.563V44.5649H111.213V52.0639ZM111.107 47.831H115.983V48.6562H111.107V47.831Z" fill="white"/>
<path d="M54.8213 12.4175H53.9933V56.7347H54.8213V12.4175Z" fill="white"/>
<path d="M33.4821 15.3176C27.6954 10.8723 20.0111 8.37549 11.7813 8.25215V0L10.7807 0.995058V40.5307L0.761719 34.7387V56.985H1.76231V36.4855L10.7742 41.6958V56.9983H11.7747V41.3224H11.7797V22.9947L20.8047 18.0727C20.8063 23.6414 20.8195 54.7032 20.8195 56.4766V57L21.3354 56.9833C28.1226 56.7717 33.6841 54.2665 37.4187 49.7412C40.915 45.506 42.7617 39.6106 42.7617 32.6936C42.7634 26.0865 39.4675 19.9162 33.4821 15.3176ZM21.8217 55.9483C21.82 51.008 21.8069 17.5777 21.8053 17.2227V16.3743L11.7813 21.8413V9.26721C19.7942 9.39055 27.2649 11.814 32.8791 16.1276C38.6082 20.5279 41.7628 26.4115 41.7628 32.6952C41.7628 46.6777 34.32 55.3332 21.8217 55.9483Z" fill="white"/>
</svg>
