<svg width="43" height="39" viewBox="0 0 43 39" fill="none" xmlns="http://www.w3.org/2000/svg">
<path d="M42.4571 19.4918C42.451 14.3241 40.3817 9.36981 36.7032 5.71569C33.0246 2.06157 28.0371 0.00604258 22.8348 0V1.63084C27.6011 1.63688 32.1705 3.52014 35.5411 6.86771C38.9117 10.2153 40.8084 14.754 40.8154 19.4886C40.8093 24.2237 38.913 28.7632 35.5423 32.1115C32.1716 35.4598 27.6017 37.3435 22.8348 37.3495C18.4644 37.3387 14.2472 35.7488 10.9701 32.8764C7.69305 30.004 5.57993 26.0454 5.02507 21.7391L7.74711 24.1234C7.91073 24.2658 8.1244 24.3382 8.34153 24.3248C8.55866 24.3113 8.76161 24.2132 8.90616 24.0517C9.04954 23.8891 9.12243 23.6769 9.1089 23.4612C9.09536 23.2455 8.99652 23.0439 8.83393 22.9003L4.36836 18.9993C4.26054 18.9043 4.13238 18.835 3.99356 18.7966C3.85474 18.7581 3.70894 18.7516 3.56721 18.7775C3.42855 18.8045 3.29765 18.8619 3.18406 18.9454C3.07048 19.0289 2.97705 19.1364 2.9105 19.2602L0.0997977 24.4789C-0.00419743 24.6688 -0.0280296 24.892 0.0335422 25.0993C0.0951141 25.3067 0.237051 25.4812 0.428149 25.5847C0.548725 25.6472 0.68282 25.6797 0.818868 25.6792C0.966941 25.6797 1.11238 25.6402 1.23961 25.5649C1.36683 25.4896 1.47109 25.3815 1.54126 25.252L3.38988 21.8337C3.96779 26.5635 6.26735 30.92 9.85518 34.082C13.443 37.244 18.0713 38.9933 22.8677 39C28.0671 38.9853 33.0486 36.9237 36.7206 33.267C40.3925 29.6103 42.4554 24.6567 42.4571 19.4918Z" fill="#49586B"/>
<path d="M22.8479 1.63088V3.89011e-05C19.9074 -0.00580818 17.0034 0.647556 14.3524 1.91144C11.7014 3.17533 9.37172 5.01715 7.53687 7.29969L8.81744 8.3206C10.4983 6.22828 12.633 4.53998 15.0624 3.38165C17.4918 2.22331 20.1531 1.62484 22.8479 1.63088Z" fill="#49586B"/>
<path d="M18.7928 19.2571C17.8679 19.2554 16.9814 18.8894 16.3278 18.2395C15.6741 17.5895 15.3065 16.7086 15.3057 15.7899C15.3065 14.8712 15.6741 13.9903 16.3278 13.3404C16.9814 12.6904 17.8679 12.3245 18.7928 12.3228C19.7182 12.3236 20.6055 12.6892 21.2598 13.3392C21.9142 13.9892 22.2823 14.8706 22.2831 15.7899C22.2823 16.7092 21.9142 17.5906 21.2598 18.2406C20.6055 18.8907 19.7182 19.2562 18.7928 19.2571ZM18.7928 13.9536C18.303 13.9545 17.8337 14.1483 17.4877 14.4926C17.1417 14.8369 16.9474 15.3034 16.9474 15.7899C16.9474 16.2764 17.1417 16.7429 17.4877 17.0872C17.8337 17.4315 18.303 17.6254 18.7928 17.6262C19.2828 17.6254 19.7524 17.4316 20.0989 17.0874C20.4454 16.7432 20.6405 16.2767 20.6414 15.7899C20.6405 15.3031 20.4454 14.8366 20.0989 14.4924C19.7524 14.1482 19.2828 13.9545 18.7928 13.9536Z" fill="#49586B"/>
<path d="M27.5204 27.9233C26.5955 27.9224 25.7087 27.5573 25.0544 26.908C24.4002 26.2586 24.0318 25.3781 24.03 24.4594C24.0309 23.5401 24.3989 22.6587 25.0533 22.0087C25.7077 21.3586 26.595 20.9931 27.5204 20.9922C28.4458 20.9931 29.3331 21.3586 29.9875 22.0087C30.6419 22.6587 31.0099 23.5401 31.0108 24.4594C31.009 25.3781 30.6406 26.2586 29.9863 26.908C29.3321 27.5573 28.4453 27.9224 27.5204 27.9233ZM27.5204 22.623C27.0304 22.6239 26.5607 22.8176 26.2142 23.1618C25.8677 23.506 25.6727 23.9726 25.6718 24.4594C25.6727 24.9458 25.8678 25.4121 26.2144 25.7557C26.561 26.0994 27.0307 26.2924 27.5204 26.2924C28.0101 26.2924 28.4798 26.0994 28.8264 25.7557C29.173 25.4121 29.3682 24.9458 29.369 24.4594C29.3682 23.9726 29.1731 23.506 28.8266 23.1618C28.4801 22.8176 28.0104 22.6239 27.5204 22.623Z" fill="#49586B"/>
<path d="M16.7471 27.5156C16.6392 27.516 16.5324 27.4951 16.4326 27.4542C16.3329 27.4134 16.2422 27.3533 16.166 27.2775C16.0895 27.2017 16.0289 27.1118 15.9875 27.0127C15.9461 26.9136 15.9248 26.8074 15.9248 26.7002C15.9248 26.5929 15.9461 26.4867 15.9875 26.3876C16.0289 26.2886 16.0895 26.1986 16.166 26.1229L29.5693 12.8087C29.7241 12.6569 29.9329 12.5718 30.1504 12.5718C30.368 12.5718 30.5768 12.6569 30.7316 12.8087C30.8844 12.9625 30.9701 13.1699 30.9701 13.386C30.9701 13.6021 30.8844 13.8095 30.7316 13.9633L17.3283 27.2775C17.252 27.3533 17.1614 27.4134 17.0617 27.4542C16.9619 27.4951 16.855 27.516 16.7471 27.5156Z" fill="#49586B"/>
</svg>
