<svg width="27" height="27" viewBox="0 0 27 27" fill="none" xmlns="http://www.w3.org/2000/svg">
<g clip-path="url(#clip0_98_836)">
<path d="M19.8819 25.2897H19.8828C20.3862 25.2888 20.8678 25.0862 21.222 24.7279C21.576 24.3699 21.774 23.8856 21.774 23.3816V6.18001C21.774 5.67608 21.576 5.19182 21.222 4.83374C20.8678 4.47549 20.3862 4.27287 19.8828 4.27197H19.8819L2.84236 4.27197L2.84146 4.27197C2.33794 4.27287 1.85624 4.47528 1.50167 4.83327C1.14726 5.1911 0.948635 5.67514 0.94775 6.17913V6.18001L0.947749 23.3816L0.94775 23.3825C0.948635 23.8865 1.14726 24.3706 1.50167 24.7284C1.85625 25.0864 2.33796 25.2888 2.84146 25.2897H2.84236H19.8819ZM21.3861 4.65347L21.7352 4.308L21.3861 4.65347C21.7862 5.05782 22.012 5.60685 22.0125 6.18047V23.3812C22.012 23.9548 21.7862 24.5039 21.3861 24.9082C20.9861 25.3124 20.4447 25.5391 19.8809 25.5402H2.84283C2.27869 25.5396 1.73682 25.3132 1.33644 24.9089C0.935935 24.5046 0.709818 23.9553 0.709229 23.3814V6.18026C0.709818 5.60638 0.935933 5.05712 1.33644 4.65275C1.73677 4.24855 2.27855 4.02208 2.84259 4.02148H19.8814C20.445 4.02267 20.9862 4.24938 21.3861 4.65347Z" fill="#A4A4A4" stroke="#A4A4A4"/>
<path d="M23.9702 0.750482H23.9689H16.191C16.1609 0.750482 16.1311 0.738451 16.1084 0.715517C16.0855 0.692419 16.0718 0.660039 16.0718 0.625241C16.0718 0.590443 16.0855 0.558063 16.1084 0.534965C16.1311 0.512031 16.1609 0.5 16.191 0.5H23.9708C24.4205 0.501161 24.8524 0.682254 25.1715 1.00514C25.4908 1.32833 25.6711 1.76726 25.6711 2.22586V9.51118C25.6711 9.54595 25.6573 9.5783 25.6344 9.60142C25.6117 9.6244 25.5818 9.63642 25.5518 9.63642C25.5217 9.63642 25.4919 9.6244 25.4691 9.60142C25.4462 9.5783 25.4325 9.54595 25.4325 9.51118V2.22586C25.4325 1.83679 25.2798 1.46262 25.0062 1.18567C24.7324 0.908563 24.3599 0.751493 23.9702 0.750482Z" fill="#A4A4A4" stroke="#A4A4A4"/>
</g>
<defs>
<clipPath id="clip0_98_836">
<rect width="25.9644" height="26.04" fill="white" transform="translate(0.209229)"/>
</clipPath>
</defs>
</svg>
