<svg width="23" height="23" viewBox="0 0 23 23" fill="none" xmlns="http://www.w3.org/2000/svg">
<path d="M6.75985 16.5228C6.75985 15.5979 6.70811 14.6697 6.77554 13.7482C6.83042 13.0104 6.54503 12.7948 5.9225 12.6886C4.58335 12.4595 3.25674 12.1344 1.92543 11.8699C1.19 11.7234 0.619213 11.3645 0.542377 10.5138C0.46554 9.66308 1.0128 9.28405 1.6667 9.01283C7.8617 6.40731 14.0551 3.79787 20.247 1.1845C20.7958 0.952025 21.3149 0.879581 21.7853 1.326C22.2557 1.77242 22.2918 2.31486 22.1569 2.94153C20.8868 8.85953 19.6355 14.7826 18.3622 20.7006C18.0768 22.028 17.1077 22.397 16.1433 21.5345C14.9218 20.4378 13.7269 19.3057 12.554 18.1518C12.0725 17.675 11.7464 17.5655 11.2603 18.1754C10.5985 19.0042 9.83802 19.7404 9.11356 20.5085C8.66038 20.987 8.13821 21.2952 7.49216 20.9903C6.8806 20.7039 6.73163 20.148 6.75202 19.4742C6.78181 18.487 6.75985 17.5049 6.75985 16.5228ZM18.3089 3.06282C18.1548 3.08809 18.0028 3.12583 17.8541 3.1757C12.5571 5.39824 7.26113 7.62304 1.96621 9.85008C1.69963 9.96126 1.39072 10.0505 1.41737 10.4548C1.44403 10.8591 1.77176 10.9013 2.04461 10.9602C3.50137 11.2769 4.95969 11.5751 6.41488 11.8952C6.62957 11.9451 6.85203 11.9418 7.06534 11.8855C7.27865 11.8291 7.47718 11.7212 7.64583 11.57C9.00693 10.4852 10.3994 9.4424 11.7715 8.36931C13.9867 6.64316 16.1992 4.91196 18.4092 3.1757C18.4374 3.13527 18.4986 3.07462 18.4892 3.05946C18.4374 2.97018 18.37 3.00218 18.3089 3.06282ZM21.3651 2.14135C21.2422 2.1927 21.1232 2.25408 21.0091 2.32497C16.7753 5.59983 12.5524 8.89491 8.30757 12.1428C7.71797 12.5926 8.09901 12.7745 8.3797 13.039C11.0455 15.5558 13.7112 18.0698 16.377 20.581C17.1736 21.3289 17.3617 21.2548 17.6079 20.1059C18.6868 15.0909 19.7766 10.0775 20.8288 5.05571C21.0264 4.12244 21.3478 3.20265 21.3651 2.14135ZM7.56586 13.4854C7.56586 15.6468 7.56586 17.5992 7.56586 19.55C7.56586 19.7791 7.5784 20.0133 7.81362 20.116C8.04883 20.2188 8.26366 20.116 8.44085 19.9172C9.25156 19.0429 10.0544 18.1602 10.8824 17.3061C11.1787 17.0012 11.105 16.8395 10.8306 16.5868C9.78314 15.6181 8.75917 14.6259 7.56429 13.4854H7.56586Z" fill="#101820" stroke="#101820" stroke-width="0.5" stroke-miterlimit="10"/>
</svg>
