<svg width="23" height="23" viewBox="0 0 23 23" fill="none" xmlns="http://www.w3.org/2000/svg">
<path d="M1 22C1.88149 20.1 2.68073 18.3396 3.51876 16.5928C3.61638 16.4247 3.66765 16.2351 3.66765 16.0423C3.66765 15.8495 3.61638 15.6599 3.51876 15.4918C1.76665 12.0237 1.91097 8.60359 4.1209 5.38629C6.33083 2.16898 9.5402 0.770615 13.4852 1.03046C17.9128 1.31885 21.9292 5.0213 22.5685 9.29151C23.4112 14.915 19.7999 19.7875 14.0051 20.7293C11.9985 21.0553 9.93683 20.7494 8.1233 19.8566C7.92622 19.7472 7.70502 19.6847 7.47804 19.6746C7.25105 19.6644 7.02483 19.7067 6.81814 19.7981C4.92945 20.5461 3.02525 21.2385 1 22ZM2.75987 20.3763C4.19695 19.8326 5.42762 19.412 6.61484 18.8984C7.26664 18.616 7.77878 18.6565 8.4073 18.9825C10.6948 20.166 13.1267 20.2877 15.5353 19.4601C18.7943 18.3396 20.9002 16.0626 21.5877 12.7882C22.3218 9.2855 21.2354 6.25444 18.3846 3.91882C14.2611 0.537801 7.80981 1.46755 4.86427 5.85792C2.8654 8.8379 2.74591 11.9591 4.37076 15.1118C4.73081 15.8072 4.71374 16.3299 4.37076 16.9818C3.82294 18.0182 3.35736 19.0906 2.75366 20.3763H2.75987Z" fill="#101820" stroke="#101820" stroke-width="0.5" stroke-miterlimit="10"/>
<path d="M8.88372 6.55038C9.58674 6.51733 10.0927 6.77117 10.3736 7.34945C10.6674 7.95926 10.9343 8.58009 11.1744 9.21193C11.2543 9.399 11.2811 9.60339 11.2519 9.80386C11.2227 10.0043 11.1386 10.1936 11.0083 10.352C10.6746 10.7425 10.7615 11.0324 11.0673 11.3853C11.3375 11.6855 11.6462 11.951 11.986 12.1754C12.4671 12.5058 12.9172 12.7447 13.285 12.0342C13.3941 11.8935 13.5452 11.7887 13.7179 11.7338C14.3542 11.4619 16.6666 12.3872 17.0825 13.0646C17.4984 13.742 17.1523 14.9766 16.381 15.6255C15.4949 16.3765 14.5001 16.5102 13.3517 16.3149C9.93747 15.7322 7.00125 12.4337 6.50308 10.0576C6.24081 8.80038 6.69862 7.75348 7.71358 6.93939C8.06276 6.65852 8.46005 6.4918 8.88372 6.55038ZM7.34578 9.45376C7.34618 9.628 7.35757 9.80206 7.37991 9.97495C7.40867 10.1476 7.46085 10.3157 7.5351 10.4751C8.8263 13.0916 10.7755 14.9526 13.8204 15.5129C14.1881 15.5954 14.5719 15.5824 14.9328 15.475C15.2937 15.3676 15.6188 15.1698 15.8751 14.9015C16.6169 14.1415 16.5052 13.5032 15.5647 13.0526L15.214 12.8858C14.1835 12.3887 14.1649 12.3752 13.4386 13.2328C13.1282 13.5918 12.8659 13.6263 12.4438 13.4416C11.3451 12.9625 10.535 12.1904 9.86919 11.2442C9.65037 10.9332 9.61157 10.6599 9.9204 10.3865C10.386 9.97195 10.4077 9.4853 10.1377 8.9641C10.0135 8.71928 9.92661 8.45492 9.81953 8.20108C9.42844 7.28185 8.56403 7.16019 7.93085 7.94424C7.57546 8.37982 7.31163 8.86648 7.34578 9.45376Z" fill="#101820" stroke="#101820" stroke-width="0.5" stroke-miterlimit="10"/>
</svg>
