<svg width="45" height="39" viewBox="0 0 45 39" fill="none" xmlns="http://www.w3.org/2000/svg">
<path d="M42.5581 16.5758H41.9929V10.3497C41.9929 9.56124 41.6776 8.80511 41.1164 8.24761C40.5552 7.69012 39.794 7.37695 39.0003 7.37695H37.2646L35.8281 2.18791C35.6195 1.43072 35.1178 0.786241 34.4325 0.39515C33.7473 0.00405786 32.9341 -0.101896 32.1705 0.100411L2.75322 7.39015C2.00173 7.45006 1.30069 7.7895 0.790257 8.34063C0.279823 8.89176 -0.00240066 9.61397 1.5385e-05 10.3629V35.4657C1.5385e-05 36.2541 0.31533 37.0102 0.876551 37.5677C1.43777 38.1252 2.19893 38.4384 2.99262 38.4384H39.0003C39.794 38.4384 40.5552 38.1252 41.1164 37.5677C41.6776 37.0102 41.9929 36.2541 41.9929 35.4657V30.1413H42.5581C43.1411 30.1413 43.7001 29.9112 44.1123 29.5018C44.5245 29.0924 44.7561 28.537 44.7561 27.958V18.7624C44.7561 18.1831 44.5246 17.6274 44.1125 17.2174C43.7004 16.8075 43.1414 16.5767 42.5581 16.5758ZM32.5828 1.68916C32.7525 1.64266 32.9299 1.63011 33.1046 1.65222C33.2792 1.67434 33.4477 1.73067 33.6003 1.81798C33.7523 1.90386 33.8857 2.01866 33.993 2.15582C34.1002 2.29298 34.1792 2.44979 34.2254 2.6173L35.5555 7.37033H9.67941L32.5828 1.68916ZM40.337 35.4426C40.337 35.793 40.1968 36.1291 39.9474 36.3768C39.698 36.6246 39.3597 36.7638 39.0069 36.7638H2.99927C2.64652 36.7638 2.30824 36.6246 2.05881 36.3768C1.80938 36.1291 1.66923 35.793 1.66923 35.4426V10.3397C1.66923 9.98933 1.80938 9.65328 2.05881 9.4055C2.30824 9.15773 2.64652 9.01853 2.99927 9.01853H39.0069C39.3597 9.01853 39.698 9.15773 39.9474 9.4055C40.1968 9.65328 40.337 9.98933 40.337 10.3397V16.5659H33.045C31.238 16.5685 29.5057 17.2828 28.2279 18.552C26.9502 19.8213 26.2311 21.542 26.2285 23.3371C26.2303 25.1324 26.949 26.8536 28.227 28.1231C29.5049 29.3925 31.2377 30.1065 33.045 30.1082H40.337V35.4426ZM43.1001 27.9349C43.1001 28.0759 43.0437 28.2112 42.9433 28.3109C42.8429 28.4106 42.7068 28.4666 42.5648 28.4666H33.045C31.6786 28.4649 30.3688 27.9249 29.4026 26.9652C28.4364 26.0054 27.8928 24.7043 27.8911 23.347C27.8937 21.99 28.4375 20.6893 29.4035 19.7297C30.3695 18.7702 31.6789 18.2299 33.045 18.2273H42.5648C42.7065 18.2282 42.8422 18.2845 42.9424 18.384C43.0426 18.4836 43.0993 18.6183 43.1001 18.7591V27.9349Z" fill="#49586B"/>
<path d="M33.5346 20C32.598 20.0009 31.7 20.3706 31.0374 21.0282C30.3748 21.6857 30.0018 22.5774 30 23.5078C30.0009 24.4387 30.3735 25.3313 31.0362 25.9895C31.6989 26.6478 32.5974 27.018 33.5346 27.0189C34.4712 27.0171 35.3688 26.6465 36.0308 25.9884C36.6927 25.3302 37.065 24.4382 37.0659 23.5078C37.065 22.5777 36.6926 21.686 36.0306 21.0284C35.3685 20.3707 34.4709 20.0009 33.5346 20ZM33.5346 25.3674C33.0384 25.3665 32.5627 25.1703 32.2118 24.8218C31.8609 24.4732 31.6634 24.0007 31.6626 23.5078C31.6634 23.0152 31.861 22.543 32.212 22.195C32.563 21.847 33.0387 21.6515 33.5346 21.6515C34.0302 21.6515 34.5055 21.8471 34.856 22.1952C35.2064 22.5433 35.4033 23.0155 35.4033 23.5078C35.4033 24.0004 35.2065 24.4729 34.8562 24.8216C34.5058 25.1702 34.0305 25.3665 33.5346 25.3674Z" fill="#49586B"/>
</svg>
