<svg width="18" height="53" viewBox="0 0 18 53" fill="none" xmlns="http://www.w3.org/2000/svg">
<g clip-path="url(#clip0_183_1464)">
<path d="M14.158 28.6895H4.42236V32.4956H14.158V28.6895Z" stroke="white" stroke-width="0.6" stroke-miterlimit="10"/>
<path d="M12.7028 24.8834H5.87793V28.6895H12.7028V24.8834Z" stroke="white" stroke-width="0.6" stroke-miterlimit="10"/>
<path d="M15.7569 32.4955H2.82178V40.6614H15.7569V32.4955Z" stroke="white" stroke-width="0.6" stroke-miterlimit="10"/>
<path d="M4.03562 33.5406H3.29102V40.6615H4.03562V33.5406Z" stroke="white" stroke-width="0.6" stroke-miterlimit="10"/>
<path d="M15.289 33.5406H14.5444V40.6615H15.289V33.5406Z" stroke="white" stroke-width="0.6" stroke-miterlimit="10"/>
<path d="M2.82178 33.5406H15.7569" stroke="white" stroke-width="0.6" stroke-miterlimit="10"/>
<path d="M18.2891 40.6577H0.289062V52.0192H18.2891V40.6577Z" stroke="white" stroke-width="0.6" stroke-miterlimit="10"/>
<path d="M9.29017 43.2637C8.36084 43.2637 7.46958 43.6141 6.81244 44.2379C6.15531 44.8616 5.78613 45.7076 5.78613 46.5898V52.0192H12.7922V46.5898C12.7925 46.1531 12.7021 45.7206 12.5262 45.3171C12.3503 44.9136 12.0924 44.5469 11.7672 44.238C11.442 43.9291 11.0558 43.6841 10.6308 43.5169C10.2058 43.3497 9.75023 43.2637 9.29017 43.2637Z" stroke="white" stroke-width="0.6" stroke-miterlimit="10"/>
<path d="M1.97718 42.1109H0.941895V52.0211H1.97718V42.1109Z" stroke="white" stroke-width="0.6" stroke-miterlimit="10"/>
<path d="M5.03724 42.1109H4.00195V52.0211H5.03724V42.1109Z" stroke="white" stroke-width="0.6" stroke-miterlimit="10"/>
<path d="M14.5783 42.1109H13.543V52.0211H14.5783V42.1109Z" stroke="white" stroke-width="0.6" stroke-miterlimit="10"/>
<path d="M17.6378 42.1109H16.6025V52.0211H17.6378V42.1109Z" stroke="white" stroke-width="0.6" stroke-miterlimit="10"/>
<path d="M0.289062 42.1109H18.2891" stroke="white" stroke-width="0.6" stroke-miterlimit="10"/>
<path d="M7.55581 30.5925H6.39111V32.4956H7.55581V30.5925Z" stroke="white" stroke-width="0.6" stroke-miterlimit="10"/>
<path d="M12.3859 30.5925H11.2212V32.4956H12.3859V30.5925Z" stroke="white" stroke-width="0.6" stroke-miterlimit="10"/>
<path d="M8.35268 38.1404H7.18799V40.0434H8.35268V38.1404Z" stroke="white" stroke-width="0.6" stroke-miterlimit="10"/>
<path d="M11.3927 38.1404H10.228V40.0434H11.3927V38.1404Z" stroke="white" stroke-width="0.6" stroke-miterlimit="10"/>
<path d="M11.8283 26.7865H10.6636V28.6895H11.8283V26.7865Z" stroke="white" stroke-width="0.6" stroke-miterlimit="10"/>
<path d="M7.91421 26.7865H6.74951V28.6895H7.91421V26.7865Z" stroke="white" stroke-width="0.6" stroke-miterlimit="10"/>
<path d="M11.5599 21.3854H7.01855V24.8853H11.5599V21.3854Z" stroke="white" stroke-width="0.6" stroke-miterlimit="10"/>
<path d="M9.87173 22.1829H8.70703V24.0859H9.87173V22.1829Z" stroke="white" stroke-width="0.6" stroke-miterlimit="10"/>
<path d="M11.5599 20.7088H7.01855V21.3835H11.5599V20.7088Z" stroke="white" stroke-width="0.6" stroke-miterlimit="10"/>
<path d="M8.54162 11.9004L7.01855 20.7088H11.5599L10.0388 11.9004H8.54162Z" stroke="white" stroke-width="0.6" stroke-miterlimit="10"/>
<path d="M10.0407 9.85944H8.5376V11.8985H10.0407V9.85944Z" stroke="white" stroke-width="0.6" stroke-miterlimit="10"/>
<path d="M8.5376 9.85942L9.29017 0.0210724L10.0407 9.85942H8.5376Z" stroke="white" stroke-width="0.6" stroke-miterlimit="10"/>
</g>
<defs>
<clipPath id="clip0_183_1464">
<rect width="18" height="53" fill="white"/>
</clipPath>
</defs>
</svg>
