<svg width="29" height="25" viewBox="0 0 29 25" fill="none" xmlns="http://www.w3.org/2000/svg">
<g clip-path="url(#clip0_183_1492)">
<path d="M14.5 3.74155V-3.05176e-05" stroke="white" stroke-width="0.6" stroke-linejoin="round"/>
<path d="M16.6057 5.42734L17.0255 3.74158H11.9747L12.3945 5.42734L10.7109 9.63635H18.2893L16.6057 5.42734Z" stroke="white" stroke-width="0.6" stroke-miterlimit="10"/>
<path d="M8.97949 9.63635L9.96196 10.9001V24.3733H19.0378V10.9001L20.0203 9.63635H8.97949Z" stroke="white" stroke-width="0.6" stroke-linejoin="round"/>
<path d="M14.5 12.244C14.2387 12.2437 13.98 12.2949 13.7386 12.3948C13.4972 12.4946 13.2778 12.6411 13.0931 12.8258C12.9084 13.0106 12.7619 13.2299 12.662 13.4713C12.5622 13.7127 12.5109 13.9715 12.5112 14.2327V24.3733H16.4887V14.2327C16.4887 13.7053 16.2792 13.1994 15.9062 12.8265C15.5332 12.4535 15.0274 12.244 14.5 12.244Z" stroke="white" stroke-width="0.6" stroke-miterlimit="10"/>
<path d="M11.585 10.9001H17.4148" stroke="white" stroke-width="0.6" stroke-linejoin="round"/>
<path d="M19.0378 18.0111H9.96191V24.3733H19.0378V18.0111Z" stroke="white" stroke-width="0.6" stroke-linejoin="round"/>
<path d="M23.9505 14.6179H22.9053V23.3627H23.9505V14.6179Z" stroke="white" stroke-width="0.6" stroke-linejoin="round"/>
<path d="M22.9052 14.6179H19.0381V23.3627H22.9052V14.6179Z" stroke="white" stroke-width="0.6" stroke-linejoin="round"/>
<path d="M20.9705 16.2301C21.0796 16.2301 21.1877 16.2516 21.2885 16.2934C21.3893 16.3351 21.4809 16.3963 21.5581 16.4735C21.6352 16.5507 21.6965 16.6423 21.7382 16.7431C21.78 16.8439 21.8015 16.952 21.8015 17.0611V18.7923H20.146V17.0611C20.146 16.8418 20.2326 16.6314 20.3871 16.4758C20.5415 16.3201 20.7512 16.2318 20.9705 16.2301Z" stroke="white" stroke-width="0.6" stroke-miterlimit="10"/>
<path d="M20.9705 20.1686C21.1894 20.1686 21.3994 20.255 21.555 20.4089C21.7106 20.5629 21.7992 20.772 21.8015 20.9909V22.7221H20.146V20.9909C20.1483 20.7732 20.2359 20.565 20.3901 20.4112C20.5443 20.2574 20.7527 20.1703 20.9705 20.1686Z" stroke="white" stroke-width="0.6" stroke-miterlimit="10"/>
<path d="M23.9504 23.3627H19.0381V24.3733H23.9504V23.3627Z" stroke="white" stroke-width="0.6" stroke-miterlimit="10"/>
<path d="M28.8626 14.6179H27.8174V23.3627H28.8626V14.6179Z" stroke="white" stroke-width="0.6" stroke-linejoin="round"/>
<path d="M27.8173 14.6179H23.9502V23.3627H27.8173V14.6179Z" stroke="white" stroke-width="0.6" stroke-linejoin="round"/>
<path d="M25.8827 16.2301C25.9919 16.2301 26.0999 16.2516 26.2007 16.2934C26.3016 16.3351 26.3932 16.3963 26.4703 16.4735C26.5475 16.5507 26.6087 16.6423 26.6505 16.7431C26.6922 16.8439 26.7137 16.952 26.7137 17.0611V18.7923H25.0518V17.0611C25.0518 16.952 25.0733 16.8439 25.115 16.7431C25.1568 16.6423 25.218 16.5507 25.2951 16.4735C25.3723 16.3963 25.4639 16.3351 25.5647 16.2934C25.6656 16.2516 25.7736 16.2301 25.8827 16.2301Z" stroke="white" stroke-width="0.6" stroke-miterlimit="10"/>
<path d="M25.8827 20.1686C26.1016 20.1686 26.3117 20.255 26.4673 20.4089C26.6229 20.5629 26.7114 20.772 26.7137 20.9909V22.7221H25.0518V20.9909C25.054 20.772 25.1426 20.5629 25.2982 20.4089C25.4538 20.255 25.6638 20.1686 25.8827 20.1686Z" stroke="white" stroke-width="0.6" stroke-miterlimit="10"/>
<path d="M28.8625 23.3627H23.9502V24.3733H28.8625V23.3627Z" stroke="white" stroke-width="0.6" stroke-miterlimit="10"/>
<path d="M32.7294 14.6179H28.8623V23.3627H32.7294V14.6179Z" stroke="white" stroke-width="0.6" stroke-linejoin="round"/>
<path d="M33.7746 23.3627H28.8623V24.3733H33.7746V23.3627Z" stroke="white" stroke-width="0.6" stroke-miterlimit="10"/>
<path d="M23.9504 13.3974H19.0381V14.6157H23.9504V13.3974Z" stroke="white" stroke-width="0.6" stroke-linejoin="round"/>
<path d="M28.8625 13.3974H23.9502V14.6157H28.8625V13.3974Z" stroke="white" stroke-width="0.6" stroke-linejoin="round"/>
<path d="M33.7746 13.3974H28.8623V14.6157H33.7746V13.3974Z" stroke="white" stroke-width="0.6" stroke-linejoin="round"/>
<path d="M48.512 11.2723H19.0381V13.3974H48.512V11.2723Z" stroke="white" stroke-width="0.6" stroke-miterlimit="10"/>
<path d="M5.04951 23.3627H6.09473L6.09473 14.6179H5.04951L5.04951 23.3627Z" stroke="white" stroke-width="0.6" stroke-linejoin="round"/>
<path d="M6.09482 23.3627H9.96191L9.96191 14.6179H6.09482L6.09482 23.3627Z" stroke="white" stroke-width="0.6" stroke-linejoin="round"/>
<path d="M8.02727 16.2301C7.91807 16.2298 7.80988 16.2511 7.70893 16.2928C7.60798 16.3344 7.51626 16.3956 7.43904 16.4729C7.36182 16.5501 7.30062 16.6418 7.25896 16.7427C7.2173 16.8437 7.19601 16.9519 7.19629 17.0611V18.7923H8.85609V17.0611C8.85638 16.9521 8.83515 16.8441 8.79362 16.7432C8.7521 16.6424 8.69109 16.5508 8.6141 16.4736C8.53711 16.3964 8.44565 16.3352 8.34495 16.2934C8.24425 16.2516 8.1363 16.2301 8.02727 16.2301Z" stroke="white" stroke-width="0.6" stroke-miterlimit="10"/>
<path d="M8.02755 20.1686C7.80885 20.1686 7.59902 20.255 7.44377 20.4091C7.28852 20.5631 7.20044 20.7722 7.19873 20.9909V22.7222H8.85853V20.9909C8.85681 20.7719 8.76844 20.5624 8.61272 20.4083C8.45701 20.2542 8.24662 20.168 8.02755 20.1686Z" stroke="white" stroke-width="0.6" stroke-miterlimit="10"/>
<path d="M5.0496 24.3733H9.96191V23.3627H5.0496V24.3733Z" stroke="white" stroke-width="0.6" stroke-miterlimit="10"/>
<path d="M0.137397 23.3627H1.18262L1.18262 14.6179H0.137397L0.137397 23.3627Z" stroke="white" stroke-width="0.6" stroke-linejoin="round"/>
<path d="M1.18271 23.3627H5.0498L5.0498 14.6179H1.18271L1.18271 23.3627Z" stroke="white" stroke-width="0.6" stroke-linejoin="round"/>
<path d="M3.11495 16.2301C3.00593 16.2301 2.89798 16.2516 2.79728 16.2934C2.69658 16.3352 2.60512 16.3964 2.52812 16.4736C2.45113 16.5508 2.39013 16.6424 2.3486 16.7432C2.30708 16.8441 2.28585 16.9521 2.28614 17.0611V18.7923H3.94594V17.0611C3.94622 16.9519 3.92492 16.8437 3.88326 16.7427C3.8416 16.6418 3.7804 16.5501 3.70318 16.4729C3.62596 16.3956 3.53424 16.3344 3.43329 16.2928C3.33235 16.2511 3.22416 16.2298 3.11495 16.2301Z" stroke="white" stroke-width="0.6" stroke-miterlimit="10"/>
<path d="M3.11495 20.1686C2.89626 20.1686 2.68642 20.255 2.53117 20.4091C2.37592 20.5631 2.28785 20.7722 2.28613 20.9909V22.7222H3.94593V20.9909C3.94422 20.7719 3.85584 20.5624 3.70013 20.4083C3.54441 20.2542 3.33402 20.168 3.11495 20.1686Z" stroke="white" stroke-width="0.6" stroke-miterlimit="10"/>
<path d="M0.137488 24.3733H5.0498V23.3627H0.137488V24.3733Z" stroke="white" stroke-width="0.6" stroke-miterlimit="10"/>
<path d="M-3.72989 23.3627H0.137207L0.137207 14.6179H-3.72989L-3.72989 23.3627Z" stroke="white" stroke-width="0.6" stroke-linejoin="round"/>
<path d="M-4.77511 24.3733H0.137207L0.137207 23.3627H-4.77511V24.3733Z" stroke="white" stroke-width="0.6" stroke-miterlimit="10"/>
<path d="M5.0496 14.6179H9.96191V13.3995H5.0496V14.6179Z" stroke="white" stroke-width="0.6" stroke-linejoin="round"/>
<path d="M0.137488 14.6179H5.0498V13.3995H0.137488V14.6179Z" stroke="white" stroke-width="0.6" stroke-linejoin="round"/>
<path d="M-4.77511 14.6179H0.137207L0.137207 13.3995H-4.77511V14.6179Z" stroke="white" stroke-width="0.6" stroke-linejoin="round"/>
<path d="M-19.512 13.3996L9.96191 13.3996V11.2745L-19.512 11.2745V13.3996Z" stroke="white" stroke-width="0.6" stroke-miterlimit="10"/>
<path d="M14.5 19.4263C14.238 19.426 13.9786 19.4776 13.7366 19.578C13.4946 19.6783 13.2749 19.8256 13.09 20.0112C12.9052 20.1969 12.7589 20.4173 12.6596 20.6597C12.5602 20.9021 12.5098 21.1617 12.5113 21.4237V24.3841H16.4887V21.4237C16.4899 21.1618 16.4393 20.9023 16.3398 20.66C16.2404 20.4177 16.0941 20.1975 15.9093 20.0119C15.7245 19.8263 15.5049 19.679 15.263 19.5785C15.0212 19.4781 14.7619 19.4263 14.5 19.4263Z" stroke="white" stroke-width="0.6" stroke-miterlimit="10"/>
</g>
<defs>
<clipPath id="clip0_183_1492">
<rect width="29" height="25" fill="white"/>
</clipPath>
</defs>
</svg>
