<svg width="27" height="27" viewBox="0 0 27 27" fill="none" xmlns="http://www.w3.org/2000/svg">
<path d="M3.72232 11.7736L16.6622 7.96892C17.9423 7.56599 22.2735 6.29956 22.2735 6.29956C22.2735 6.29956 24.2686 5.75536 23.9343 7.51818C23.8092 8.24527 23.1313 10.767 22.4326 13.4975L20.2938 21.5799C20.2938 21.5799 20.0692 22.7727 19.1389 22.8929C18.2087 23.0132 16.8063 21.9255 16.5598 21.69C16.3615 21.5123 12.7982 18.7872 11.5215 17.5005C11.1782 17.1501 10.8122 16.4804 11.7387 15.8317C13.831 14.2935 16.3382 12.3733 17.8601 11.149C18.5627 10.5839 19.3471 9.18185 16.5018 10.6994L8.48239 14.9325C8.48239 14.9325 7.57625 15.372 6.01955 14.7445C4.46285 14.117 2.65422 13.3063 2.65422 13.3063C2.65422 13.3063 1.44864 12.3963 3.72107 11.7736L3.72232 11.7736Z" fill="#FBFBFD"/>
</svg>
