<svg width="25" height="24" viewBox="0 0 25 24" fill="none" xmlns="http://www.w3.org/2000/svg">
<path d="M2.75738 11.4037L15.2656 6.35763C16.5003 5.83203 20.6877 4.15007 20.6877 4.15007C20.6877 4.15007 22.6203 3.41426 22.4592 5.20126C22.4055 5.93706 21.9763 8.51275 21.5466 11.2983L20.2046 19.5506C20.2046 19.5506 20.0972 20.7595 19.183 20.9697C18.2689 21.1799 16.7673 20.2339 16.499 20.0236C16.2844 19.8659 12.4728 17.5006 11.0769 16.3442C10.7011 16.029 10.2717 15.3981 11.1306 14.6623C13.0633 12.9277 15.3717 10.7726 16.7673 9.40602C17.4115 8.77525 18.0557 7.30349 15.3716 9.09079L7.80229 14.0842C7.80229 14.0842 6.94323 14.6098 5.33285 14.1368C3.72246 13.6638 1.84352 13.0331 1.84352 13.0331C1.84352 13.0331 0.555091 12.2447 2.75614 11.4038L2.75738 11.4037Z" fill="#272727"/>
</svg>
