<svg width="27" height="27" viewBox="0 0 27 27" fill="none" xmlns="http://www.w3.org/2000/svg">
<path fill-rule="evenodd" clip-rule="evenodd" d="M5.10905 3.53549C3.41735 4.9174 3.17468 7.39889 2.69023 12.3528L2.60458 13.2286C2.12013 18.1824 1.87746 20.6639 3.26938 22.3474C4.65129 24.0391 7.13279 24.2818 12.0867 24.7662L12.9625 24.8519C17.9163 25.3363 20.3978 25.579 22.0813 24.1871C23.773 22.8052 24.0157 20.3237 24.5001 15.3698L24.5858 14.494C25.0702 9.54012 25.3129 7.05862 23.921 5.37515C22.5391 3.68346 20.0576 3.44078 15.1037 2.95633L14.2279 2.87068C9.27401 2.38623 6.79252 2.14356 5.10905 3.53549ZM6.76307 8.86452C6.32495 14.569 8.8368 18.2685 13.8272 18.7565L14.11 18.7842L14.4285 15.5272C15.2979 15.7241 16.0898 16.1733 16.7051 16.8184C17.3203 17.4635 17.7314 18.2758 17.887 19.1535L20.4779 19.4069C20.3078 18.3972 19.9255 17.4351 19.3562 16.584C18.7869 15.7329 18.0436 15.0123 17.1753 14.4695C18.0414 14.0532 18.8123 13.4626 19.4398 12.7348C20.0672 12.0069 20.5377 11.1574 20.8218 10.2394L18.4681 10.0092C17.7805 11.7656 16.1055 13.2597 14.6489 13.2738L15.0013 9.67015L12.6475 9.43997L12.0301 15.7532C10.6061 15.2455 8.9363 13.2954 9.26281 9.10897L6.76307 8.86452Z" fill="#FBFBFD"/>
</svg>
