<svg width="25" height="24" viewBox="0 0 25 24" fill="none" xmlns="http://www.w3.org/2000/svg">
<path fill-rule="evenodd" clip-rule="evenodd" d="M3.28354 2.54917C1.73438 4.08917 1.73438 6.5825 1.73438 11.56V12.44C1.73438 17.4175 1.73438 19.9108 3.28354 21.4508C4.82354 23 7.31688 23 12.2944 23H13.1744C18.1519 23 20.6452 23 22.1852 21.4508C23.7344 19.9108 23.7344 17.4175 23.7344 12.44V11.56C23.7344 6.5825 23.7344 4.08917 22.1852 2.54917C20.6452 1 18.1519 1 13.1744 1H12.2944C7.31688 1 4.82354 1 3.28354 2.54917ZM5.44837 7.69192C5.56754 13.4119 8.42754 16.8494 13.4417 16.8494H13.7259V13.5769C14.6103 13.6883 15.4422 14.0582 16.1173 14.6404C16.7924 15.2225 17.2806 15.991 17.5209 16.8494H20.1242C19.8566 15.8611 19.3824 14.9407 18.733 14.1491C18.0836 13.3575 17.2737 12.7126 16.3567 12.2569C17.1782 11.7583 17.8879 11.0955 18.4416 10.31C18.9952 9.5245 19.3808 8.63323 19.5742 7.69192H17.2092C16.6959 9.50692 15.1742 11.1569 13.7259 11.3127V7.69192H11.3609V14.0352C9.8942 13.6686 8.04254 11.8902 7.96004 7.69192H5.44837Z" fill="#272727"/>
</svg>
