<svg width="27" height="27" viewBox="0 0 27 27" fill="none" xmlns="http://www.w3.org/2000/svg">
<path fill-rule="evenodd" clip-rule="evenodd" d="M4.77045 5.90267C3.5585 6.91752 3.38687 8.32914 3.04362 11.1524C2.99638 11.5409 2.95241 11.9381 2.91302 12.3408C2.87364 12.7435 2.83985 13.1417 2.81092 13.532C2.60071 16.3683 2.4956 17.7864 3.48798 19.0168C4.48036 20.2472 5.9617 20.455 8.92439 20.8707C10.2595 21.058 11.6884 21.2371 13.0822 21.3734C14.4759 21.5097 15.9125 21.6108 17.2586 21.6857C20.2457 21.8519 21.7392 21.935 22.9512 20.9202C24.1631 19.9053 24.3347 18.4937 24.678 15.6704C24.7252 15.2819 24.7692 14.8847 24.8086 14.482C24.848 14.0793 24.8818 13.6812 24.9107 13.2908C25.1209 10.4546 25.226 9.03644 24.2336 7.80602C23.2412 6.57561 21.7599 6.36779 18.7972 5.95215C17.4621 5.76484 16.0332 5.58569 14.6394 5.4494C13.2457 5.3131 11.8091 5.21202 10.463 5.13712C7.47594 4.97092 5.9824 4.88782 4.77045 5.90267ZM10.4857 17.1004L17.8418 13.8007L11.2644 9.13842L10.4857 17.1004Z" fill="#FBFBFD"/>
</svg>
